<svg width="500" height="500" viewBox="0 0 500 500" fill="none" xmlns="http://www.w3.org/2000/svg">
<path d="M358.969 314.415H431.233V258.679H358.969V314.415Z" fill="#EBEBEB"/>
<path d="M364.136 309.551H372.844V299.708H364.136V309.551Z" fill="white"/>
<path d="M409.187 258.823H400.979V270.716H409.187V258.823Z" fill="#FAFAFA"/>
<path d="M409.187 302.357H400.979V314.25H409.187V302.357Z" fill="#FAFAFA"/>
<path d="M377.007 314.799C376.88 314.799 376.777 302.54 376.777 287.422C376.777 272.299 376.88 260.043 377.007 260.043C377.134 260.043 377.237 272.299 377.237 287.422C377.237 302.54 377.134 314.799 377.007 314.799Z" fill="#E0E0E0"/>
<path d="M329.496 410.398H454.18V314.231H329.496V410.398Z" fill="#EBEBEB"/>
<path d="M338.41 402.005H353.434V385.021H338.41V402.005Z" fill="white"/>
<path d="M416.143 314.479H401.98V334.999H416.143V314.479Z" fill="#FAFAFA"/>
<path d="M416.143 389.593H401.98V410.113H416.143V389.593Z" fill="#FAFAFA"/>
<path d="M360.617 411.06C360.397 411.06 360.219 389.909 360.219 363.824C360.219 337.73 360.397 316.583 360.617 316.583C360.837 316.583 361.014 337.729 361.014 363.824C361.014 389.909 360.836 411.06 360.617 411.06Z" fill="#E0E0E0"/>
<path d="M450.218 114.211L456.897 127.744L471.832 129.915L461.025 140.449L463.576 155.324L450.218 148.301L436.86 155.324L439.411 140.449L428.604 129.915L443.539 127.744L450.218 114.211Z" fill="#EBEBEB"/>
<path d="M52.5087 288.967L56.7187 297.496L66.1307 298.864L59.3197 305.503L60.9277 314.877L52.5087 310.451L44.0907 314.877L45.6977 305.503L38.8877 298.864L48.2997 297.496L52.5087 288.967Z" fill="#EBEBEB"/>
<path d="M57.7319 214.661L67.0789 233.601L87.9799 236.638L72.8559 251.38L76.4259 272.196L57.7319 262.368L39.0379 272.196L42.6089 251.38L27.4849 236.638L48.3849 233.601L57.7319 214.661Z" fill="#EBEBEB"/>
<path d="M444.271 175.324L448.3 183.487L457.308 184.796L450.79 191.15L452.329 200.122L444.271 195.886L436.214 200.122L437.753 191.15L431.234 184.796L440.242 183.487L444.271 175.324Z" fill="#EBEBEB"/>
<path d="M312.049 43.068L316.077 51.231L325.086 52.54L318.567 58.895L320.106 67.867L312.049 63.631L303.991 67.867L305.53 58.895L299.012 52.54L308.02 51.231L312.049 43.068Z" fill="#EBEBEB"/>
<path d="M404.223 130.409L406.86 135.752L412.756 136.609L408.489 140.768L409.496 146.64L404.223 143.867L398.949 146.64L399.956 140.768L395.69 136.609L401.586 135.752L404.223 130.409Z" fill="#EBEBEB"/>
<path d="M160.924 400.108L166.06 410.514L177.544 412.183L169.234 420.283L171.196 431.721L160.924 426.321L150.652 431.721L152.614 420.283L144.304 412.183L155.788 410.514L160.924 400.108Z" fill="#EBEBEB"/>
<path d="M174.481 389.764L176.603 394.064L181.348 394.753L177.915 398.1L178.725 402.826L174.481 400.594L170.237 402.826L171.048 398.1L167.615 394.753L172.359 394.064L174.481 389.764Z" fill="#EBEBEB"/>
<path d="M364.135 349.92L368.651 359.07L378.748 360.537L371.442 367.659L373.167 377.716L364.135 372.967L355.104 377.716L356.829 367.659L349.523 360.537L359.62 359.07L364.135 349.92Z" fill="white"/>
<path d="M385.678 341.811L387.806 346.122L392.564 346.814L389.121 350.17L389.934 354.908L385.678 352.671L381.423 354.908L382.235 350.17L378.792 346.814L383.55 346.122L385.678 341.811Z" fill="white"/>
<path d="M357.442 103.66L360.973 92.601C358.224 87.088 356.918 80.773 357.514 74.191C359.226 55.26 375.982 41.304 394.938 43.019C413.896 44.733 427.875 61.469 426.163 80.4C424.451 99.33 407.695 113.286 388.738 111.572C380.822 110.856 374.303 107.99 368.903 102.97L357.442 103.66Z" fill="#FAFAFA"/>
<path d="M357.442 103.66C357.442 103.66 357.708 103.633 358.205 103.596C358.719 103.559 359.452 103.506 360.409 103.438C362.351 103.305 365.197 103.11 368.896 102.857L368.944 102.854L368.98 102.887C372.237 105.894 377.21 109.231 383.936 110.653C385.604 111.011 387.363 111.29 389.197 111.404C390.115 111.439 391.048 111.474 391.997 111.509C392.945 111.502 393.907 111.403 394.885 111.353C398.78 110.991 402.866 109.943 406.787 108.027C410.705 106.12 414.45 103.35 417.581 99.776C420.704 96.208 423.242 91.844 424.656 86.955C426.062 82.074 426.419 76.723 425.506 71.445C425.348 70.111 424.927 68.826 424.592 67.514C424.446 66.851 424.165 66.229 423.936 65.588C423.692 64.953 423.468 64.307 423.205 63.677C422.029 61.213 420.736 58.746 418.977 56.575C418.182 55.429 417.196 54.449 416.27 53.428C415.826 52.898 415.272 52.481 414.773 52.01C414.256 51.56 413.769 51.075 413.23 50.657L411.586 49.444L410.766 48.841L409.895 48.32L408.16 47.282C407.576 46.95 406.952 46.697 406.353 46.401C401.516 44.132 396.268 43.03 391.194 43.14C386.117 43.24 381.24 44.478 376.974 46.54C372.699 48.598 369.035 51.463 366.153 54.724C363.263 57.986 361.159 61.637 359.777 65.292C359.612 65.753 359.448 66.209 359.286 66.663C359.113 67.114 358.962 67.566 358.864 68.032C358.635 68.952 358.41 69.858 358.188 70.749C357.943 72.567 357.609 74.314 357.574 76.024C357.298 82.878 359.105 88.562 361.074 92.55L361.095 92.592L361.081 92.635C359.912 96.198 359.012 98.938 358.398 100.808C358.092 101.729 357.858 102.434 357.694 102.928C357.534 103.407 357.442 103.66 357.442 103.66C357.442 103.66 357.503 103.432 357.645 102.962C357.795 102.471 358.01 101.771 358.291 100.857C358.88 98.96 359.743 96.18 360.865 92.566L360.872 92.651C358.851 88.657 356.987 82.935 357.229 76.011C357.255 74.284 357.583 72.517 357.824 70.678C358.044 69.777 358.267 68.86 358.495 67.928C358.592 67.457 358.743 66.998 358.916 66.542C359.079 66.083 359.243 65.62 359.408 65.153C360.791 61.45 362.908 57.746 365.826 54.433C368.735 51.122 372.441 48.209 376.77 46.113C381.091 44.014 386.036 42.748 391.187 42.641C396.334 42.523 401.661 43.634 406.573 45.935C407.181 46.234 407.814 46.491 408.407 46.828L410.17 47.88L411.055 48.409L411.888 49.02L413.558 50.251C414.105 50.675 414.6 51.167 415.125 51.624C415.631 52.102 416.193 52.525 416.645 53.063C417.585 54.099 418.585 55.095 419.393 56.258C421.177 58.463 422.492 60.966 423.683 63.469C423.95 64.109 424.177 64.765 424.425 65.41C424.658 66.06 424.942 66.692 425.09 67.365C425.43 68.696 425.855 70.002 426.016 71.356C426.939 76.715 426.571 82.144 425.137 87.095C423.695 92.054 421.113 96.477 417.939 100.088C414.757 103.705 410.954 106.502 406.981 108.422C403.004 110.35 398.864 111.398 394.922 111.748C393.933 111.795 392.959 111.891 392.001 111.893C391.042 111.853 390.099 111.813 389.171 111.774C387.32 111.65 385.547 111.36 383.864 110.99C377.078 109.519 372.076 106.11 368.829 103.052L368.912 103.082C365.175 103.277 362.3 103.427 360.338 103.53C359.394 103.576 358.67 103.611 358.163 103.636C357.675 103.657 357.442 103.66 357.442 103.66Z" fill="#263238"/>
<path d="M372.307 75.996L377.979 71.085L387.532 80.889L408.949 63.053L413.482 68.697L386.043 91.04L372.307 75.996Z" fill="#787878"/>
<path d="M298.111 349.494L106.349 392.23C101.694 393.267 97.0801 390.335 96.0431 385.68L33.8091 106.432C32.7721 101.777 35.7041 97.163 40.3591 96.126L232.122 53.39C236.777 52.353 241.391 55.285 242.428 59.94L304.661 339.189C305.699 343.843 302.766 348.457 298.111 349.494Z" fill="#E0E0E0"/>
<path d="M298.111 349.494C298.111 349.494 298.324 349.428 298.747 349.307C299.168 349.182 299.784 348.943 300.544 348.524C301.288 348.082 302.164 347.42 302.967 346.414C303.755 345.409 304.467 344.039 304.72 342.365C304.864 341.532 304.847 340.625 304.699 339.695C304.542 338.765 304.286 337.794 304.068 336.771C303.609 334.727 303.108 332.491 302.564 330.069C301.479 325.224 300.227 319.635 298.817 313.344C293.191 288.17 285.051 251.747 274.992 206.742C269.969 184.237 264.466 159.586 258.56 133.123C255.608 119.891 252.554 106.206 249.409 92.11C247.837 85.062 246.242 77.911 244.624 70.662C243.811 67.041 242.994 63.395 242.17 59.725C241.734 57.932 240.649 56.32 239.203 55.168C237.736 54.042 235.9 53.371 234.032 53.378C233.096 53.374 232.187 53.558 231.249 53.779C230.316 53.987 229.382 54.195 228.446 54.404C226.575 54.821 224.698 55.24 222.815 55.66C219.05 56.5 215.263 57.344 211.453 58.194C203.834 59.893 196.129 61.611 188.341 63.348C172.765 66.821 156.861 70.367 140.671 73.977C108.29 81.195 74.7632 88.668 40.4252 96.322C38.3232 96.783 36.4292 98.075 35.2432 99.861C34.0422 101.636 33.5642 103.874 33.9392 105.976C34.8442 110.232 35.8252 114.495 36.7602 118.733C38.6502 127.214 40.5272 135.639 42.3912 144.002C46.1182 160.729 49.7902 177.211 53.3982 193.405C60.6122 225.795 67.5712 257.038 74.2002 286.8C80.8262 316.563 87.1222 344.845 93.0152 371.314C93.7512 374.623 94.4812 377.903 95.2052 381.154C95.5742 382.775 95.9112 384.41 96.3022 385.998C96.7072 387.567 97.5952 388.99 98.7792 390.068C99.9662 391.15 101.458 391.869 103.022 392.148C103.807 392.279 104.604 392.298 105.391 392.222C106.17 392.119 106.955 391.928 107.739 391.754C110.872 391.057 113.974 390.367 117.046 389.683C129.332 386.95 141.123 384.326 152.377 381.823C197.394 371.819 233.823 363.723 259.002 358.128C271.59 355.34 281.364 353.175 287.995 351.706C291.308 350.977 293.835 350.421 295.537 350.046C297.238 349.674 298.111 349.494 298.111 349.494C298.111 349.494 297.244 349.702 295.548 350.087C293.848 350.471 291.324 351.04 288.015 351.787C281.388 353.273 271.619 355.463 259.038 358.284C233.867 363.91 197.447 372.049 152.442 382.107C141.19 384.619 129.401 387.251 117.117 389.993C114.046 390.679 110.944 391.371 107.812 392.07C107.03 392.243 106.25 392.436 105.43 392.545C104.612 392.625 103.784 392.606 102.968 392.47C101.342 392.181 99.7922 391.435 98.5582 390.312C97.3262 389.193 96.4032 387.713 95.9812 386.083C95.5822 384.467 95.2492 382.853 94.8782 381.226C94.1522 377.975 93.4212 374.695 92.6822 371.387C86.7782 344.921 80.4692 316.642 73.8302 286.882C67.1942 257.122 60.2272 225.88 53.0052 193.492C49.3952 177.298 45.7212 160.816 41.9922 144.09C40.1282 135.727 38.2502 127.302 36.3602 118.821C35.4232 114.574 34.4482 110.34 33.5352 106.045C33.1422 103.84 33.6442 101.49 34.9032 99.63C36.1462 97.757 38.1372 96.4 40.3392 95.918C74.6782 88.267 108.205 80.796 140.587 73.581C156.778 69.974 172.683 66.432 188.26 62.962C196.048 61.228 203.755 59.511 211.374 57.814C215.184 56.966 218.971 56.122 222.737 55.283C224.62 54.864 226.497 54.446 228.368 54.029C229.304 53.821 230.238 53.613 231.171 53.405C232.091 53.188 233.065 52.99 234.039 52.996C235.992 52.989 237.911 53.691 239.442 54.868C240.954 56.071 242.086 57.758 242.541 59.63C243.364 63.304 244.181 66.954 244.993 70.579C246.607 77.829 248.199 84.98 249.769 92.029C252.907 106.127 255.954 119.814 258.9 133.047C264.789 159.514 270.275 184.169 275.283 206.677C285.287 251.694 293.383 288.126 298.979 313.307C300.374 319.602 301.614 325.194 302.689 330.041C303.225 332.464 303.721 334.701 304.173 336.747C304.388 337.773 304.639 338.737 304.795 339.679C304.941 340.619 304.954 341.536 304.806 342.377C304.544 344.067 303.819 345.445 303.02 346.453C302.205 347.462 301.32 348.122 300.568 348.56C299.801 348.975 299.18 349.208 298.756 349.327C298.328 349.442 298.111 349.494 298.111 349.494Z" fill="#263238"/>
<g opacity="0.3">
<path d="M116.073 382.344L290.794 342.403L285.266 308.156L275.364 288.967L108.224 354.618L116.073 382.344Z" fill="black"/>
</g>
<g opacity="0.3">
<path d="M189.017 63.631L195.626 74.544L196.915 80.326L192.428 81.326L189.017 63.631Z" fill="black"/>
</g>
<path d="M43.7642 108.05L104.381 380.052L294.392 337.706L283.553 289.069L233.774 65.705L43.7642 108.05Z" fill="white"/>
<path d="M43.7642 108.05C45.1182 107.747 118.254 91.381 233.738 65.54L233.903 65.503L233.94 65.668C250.797 141.257 271.834 235.587 294.592 337.639L294.597 337.661L294.643 337.865L294.439 337.911C226.508 353.043 162.006 367.412 104.425 380.238L104.238 380.28L104.197 380.094C68.5142 219.469 44.1322 109.707 43.7642 108.05C44.1342 109.705 68.6672 219.435 104.568 380.01L104.34 379.865C161.919 367.027 226.418 352.647 294.346 337.501L294.187 337.751L294.182 337.729C271.453 235.671 250.444 141.335 233.609 65.741L233.811 65.869C118.282 91.511 45.1172 107.75 43.7642 108.05Z" fill="#263238"/>
<path d="M193.452 83.535L97.3121 104.961L92.4742 83.25C91.7142 79.84 93.8622 76.46 97.2722 75.7L181.064 57.026C184.474 56.266 187.854 58.414 188.614 61.824L193.452 83.535Z" fill="#263238"/>
<path d="M149.066 53.15L124.596 58.603L132.131 78.94L150.562 74.832L149.066 53.15Z" fill="#263238"/>
<path d="M181.062 57.027C181.087 57.138 162.349 61.409 139.215 66.565C116.073 71.722 97.299 75.812 97.274 75.7C97.249 75.589 115.983 71.319 139.125 66.161C162.259 61.006 181.037 56.916 181.062 57.027Z" fill="#455A64"/>
<path d="M98.4623 99.983C98.3513 100.008 97.3813 96.084 96.2973 91.219C95.2123 86.353 94.4243 82.3889 94.5353 82.3639C94.6463 82.3389 95.6163 86.2629 96.7003 91.1289C97.7843 95.9939 98.5733 99.958 98.4623 99.983Z" fill="#455A64"/>
<path d="M188.873 77.644C188.761 77.669 187.873 74.108 186.889 69.691C185.904 65.273 185.197 61.672 185.308 61.648C185.419 61.623 186.308 65.183 187.292 69.602C188.276 74.018 188.984 77.619 188.873 77.644Z" fill="#455A64"/>
<path d="M185.063 82.3859C185.088 82.4979 165.853 86.8789 142.106 92.1709C118.351 97.4649 99.0802 101.665 99.0552 101.553C99.0302 101.442 118.261 97.0609 142.016 91.7669C165.763 86.4759 185.038 82.2749 185.063 82.3859Z" fill="#455A64"/>
<path d="M134.45 161.514C134.475 161.627 121.502 164.614 105.478 168.185C89.4481 171.757 76.4371 174.561 76.4121 174.448C76.3871 174.335 89.3571 171.349 105.387 167.776C121.411 164.205 134.425 161.401 134.45 161.514Z" fill="#263238"/>
<path d="M231.163 150.622C231.188 150.735 197.29 158.385 155.46 167.708C113.615 177.034 79.6832 184.499 79.6582 184.387C79.6332 184.274 113.524 176.625 155.369 167.3C197.2 157.977 231.138 150.51 231.163 150.622Z" fill="#263238"/>
<path d="M233.247 159.97C233.272 160.083 199.374 167.734 157.544 177.056C115.699 186.382 81.7672 193.847 81.7422 193.734C81.7172 193.621 115.608 185.972 157.453 176.647C199.283 167.325 233.221 159.857 233.247 159.97Z" fill="#263238"/>
<path d="M235.33 169.318C235.355 169.431 201.457 177.081 159.627 186.404C117.782 195.73 83.8502 203.195 83.8252 203.082C83.8002 202.969 117.691 195.32 159.536 185.995C201.366 176.673 235.305 169.205 235.33 169.318Z" fill="#263238"/>
<path d="M237.413 178.666C237.438 178.779 203.54 186.43 161.71 195.752C119.865 205.078 85.9332 212.543 85.9082 212.43C85.8832 212.317 119.774 204.668 161.619 195.343C203.449 186.02 237.388 178.553 237.413 178.666Z" fill="#263238"/>
<path d="M239.496 188.014C239.521 188.127 205.623 195.778 163.793 205.1C121.948 214.426 88.0172 221.891 87.9912 221.778C87.9662 221.665 121.857 214.016 163.702 204.691C205.533 195.368 239.471 187.901 239.496 188.014Z" fill="#263238"/>
<path d="M117.372 253.814C117.364 253.809 117.333 253.701 117.281 253.498C117.224 253.265 117.151 252.972 117.061 252.607C116.869 251.796 116.602 250.674 116.268 249.265C115.6 246.374 114.662 242.311 113.54 237.451L113.756 237.588C108.981 238.661 103.359 239.923 97.361 241.271C97.324 241.325 97.66 240.8 97.519 241.024L97.52 241.028L97.522 241.037L97.526 241.055L97.534 241.09L97.55 241.16L97.581 241.3L97.644 241.581L97.769 242.141C97.852 242.513 97.934 242.884 98.016 243.253C98.18 243.991 98.343 244.723 98.503 245.446C98.824 246.893 99.137 248.309 99.443 249.687C100.049 252.441 100.621 255.041 101.147 257.429L100.931 257.292C105.808 256.244 109.885 255.368 112.786 254.745C114.204 254.449 115.333 254.214 116.148 254.044C116.516 253.971 116.813 253.912 117.048 253.865C117.253 253.826 117.364 253.808 117.372 253.814C117.38 253.819 117.286 253.847 117.095 253.897C116.871 253.952 116.589 254.022 116.239 254.109C115.438 254.299 114.329 254.563 112.937 254.893C110.018 255.567 105.917 256.513 101.01 257.646L100.834 257.687L100.794 257.509C100.256 255.124 99.67 252.527 99.049 249.776C98.74 248.399 98.423 246.983 98.099 245.537C97.937 244.813 97.774 244.082 97.609 243.344C97.527 242.975 97.444 242.604 97.361 242.232L97.236 241.672L97.173 241.391L97.142 241.25L97.126 241.18L97.118 241.145L97.114 241.127L97.112 241.118L97.111 241.114C96.969 241.336 97.303 240.806 97.271 240.861C103.274 239.534 108.9 238.29 113.678 237.233L113.856 237.194L113.894 237.371C114.952 242.294 115.837 246.409 116.466 249.338C116.758 250.739 116.99 251.855 117.158 252.661C117.228 253.015 117.285 253.3 117.329 253.527C117.365 253.721 117.38 253.819 117.372 253.814Z" fill="#263238"/>
<path d="M239.284 213.385L124.867 238.88L126.994 248.425L241.411 222.93L239.284 213.385Z" fill="#E0E0E0"/>
<path d="M123.713 282.265C123.705 282.26 123.674 282.152 123.622 281.949C123.565 281.716 123.492 281.423 123.402 281.058C123.21 280.247 122.943 279.125 122.609 277.716C121.941 274.824 121.004 270.762 119.881 265.902L120.097 266.039C115.322 267.112 109.7 268.374 103.702 269.722C103.665 269.776 104.001 269.25 103.86 269.475L103.861 269.479L103.863 269.488L103.867 269.506L103.875 269.541L103.891 269.611L103.922 269.752L103.985 270.033L104.11 270.593C104.193 270.965 104.275 271.336 104.358 271.705C104.522 272.443 104.684 273.175 104.845 273.898C105.166 275.345 105.479 276.761 105.785 278.139C106.391 280.893 106.963 283.493 107.489 285.881L107.273 285.744C112.15 284.696 116.227 283.82 119.128 283.197C120.546 282.901 121.675 282.666 122.49 282.496C122.858 282.423 123.155 282.364 123.39 282.317C123.594 282.278 123.704 282.26 123.713 282.265C123.721 282.27 123.627 282.298 123.436 282.348C123.212 282.403 122.93 282.473 122.58 282.56C121.779 282.75 120.67 283.014 119.278 283.345C116.359 284.019 112.257 284.965 107.35 286.098L107.174 286.139L107.134 285.961C106.596 283.576 106.01 280.979 105.389 278.228C105.08 276.851 104.763 275.436 104.439 273.989C104.277 273.266 104.114 272.534 103.949 271.796C103.867 271.427 103.784 271.056 103.701 270.684L103.576 270.124L103.513 269.843L103.482 269.702L103.466 269.632L103.458 269.597L103.454 269.579L103.452 269.57L103.451 269.566C103.309 269.788 103.643 269.258 103.611 269.313C109.614 267.986 115.24 266.742 120.018 265.686L120.196 265.646L120.234 265.823C121.292 270.746 122.177 274.861 122.807 277.79C123.099 279.191 123.331 280.307 123.499 281.113C123.569 281.467 123.625 281.752 123.67 281.979C123.706 282.173 123.721 282.271 123.713 282.265Z" fill="#263238"/>
<path d="M245.625 241.838L131.208 267.333L133.335 276.878L247.751 251.384L245.625 241.838Z" fill="#E0E0E0"/>
<path d="M130.053 310.717C130.045 310.712 130.014 310.604 129.962 310.401C129.905 310.168 129.832 309.875 129.742 309.51C129.55 308.7 129.283 307.577 128.949 306.168C128.281 303.276 127.344 299.214 126.221 294.354L126.437 294.491C121.662 295.564 116.04 296.826 110.042 298.174C110.005 298.228 110.342 297.703 110.2 297.927L110.201 297.932L110.203 297.941L110.207 297.959L110.215 297.994L110.231 298.064L110.262 298.205L110.325 298.486L110.45 299.046C110.533 299.418 110.615 299.789 110.697 300.158C110.861 300.896 111.024 301.628 111.184 302.351C111.505 303.798 111.818 305.214 112.123 306.592C112.729 309.346 113.301 311.946 113.827 314.334L113.611 314.197C118.488 313.149 122.565 312.273 125.466 311.649C126.884 311.353 128.013 311.118 128.829 310.948C129.197 310.875 129.494 310.816 129.729 310.769C129.935 310.73 130.045 310.712 130.053 310.717C130.061 310.722 129.967 310.75 129.776 310.8C129.552 310.856 129.27 310.926 128.92 311.013C128.119 311.203 127.01 311.467 125.618 311.797C122.699 312.471 118.598 313.417 113.691 314.55L113.515 314.591L113.475 314.413C112.937 312.027 112.351 309.431 111.73 306.68C111.421 305.303 111.104 303.887 110.78 302.441C110.618 301.717 110.455 300.986 110.29 300.248C110.208 299.879 110.125 299.508 110.042 299.136L109.917 298.576L109.854 298.295L109.823 298.154L109.807 298.084L109.799 298.049L109.795 298.031L109.793 298.022L109.792 298.018C109.65 298.24 109.984 297.71 109.952 297.765C115.955 296.438 121.581 295.194 126.359 294.137L126.537 294.098L126.575 294.275C127.633 299.198 128.518 303.313 129.147 306.242C129.439 307.643 129.671 308.759 129.839 309.565C129.909 309.919 129.966 310.205 130.01 310.431C130.047 310.625 130.061 310.723 130.053 310.717Z" fill="#263238"/>
<path d="M251.965 270.292L137.549 295.787L139.676 305.332L254.092 279.837L251.965 270.292Z" fill="#E0E0E0"/>
<path d="M101.615 247.935L103.333 245.232L108.442 248.071L115.016 238.153L117.561 239.906L109.076 252.405L101.615 247.935Z" fill="#787878"/>
<path d="M107.744 275.435L109.462 272.732L114.57 275.571L121.145 265.653L123.69 267.406L115.205 279.905L107.744 275.435Z" fill="#787878"/>
<path d="M114.028 303.631L115.746 300.928L120.854 303.767L127.428 293.849L129.974 295.602L121.488 308.101L114.028 303.631Z" fill="#787878"/>
<path d="M166.396 339.014C166.421 339.127 156.761 341.376 144.823 344.036C132.88 346.697 123.182 348.763 123.157 348.65C123.132 348.537 132.789 346.289 144.732 343.627C156.67 340.967 166.37 338.902 166.396 339.014Z" fill="#263238"/>
<path d="M187.941 333.864C187.966 333.977 184.412 334.865 180.004 335.847C175.594 336.83 172.001 337.535 171.975 337.422C171.95 337.309 175.503 336.421 179.913 335.438C184.321 334.456 187.916 333.751 187.941 333.864Z" fill="#263238"/>
<path d="M259.281 311.409C259.306 311.522 250.614 313.555 239.87 315.949C229.122 318.344 220.391 320.194 220.366 320.081C220.341 319.968 229.031 317.935 239.779 315.54C250.523 313.146 259.256 311.296 259.281 311.409Z" fill="#263238"/>
<path d="M249.992 337.733C249.968 337.725 250.077 337.459 250.183 336.937C250.299 336.416 250.305 335.611 250.062 334.627C249.811 333.642 249.296 332.503 248.679 331.185C248.089 329.872 247.323 328.315 247.31 326.417C247.338 324.554 248.159 322.485 249.845 321.034C251.51 319.555 254.121 319.033 256.49 319.795C257.669 320.179 258.807 320.846 259.653 321.872C260.057 322.395 260.381 323.023 260.404 323.744C260.467 324.479 259.904 325.209 259.231 325.434C258.566 325.689 257.917 325.765 257.263 325.922C256.606 326.057 255.944 326.194 255.277 326.331C253.94 326.595 252.576 326.84 251.184 327.022C248.407 327.394 245.617 327.445 243.003 327.069C241.725 326.934 240.375 326.913 239.412 327.654C238.452 328.387 237.965 329.578 237.248 330.577C236.895 331.081 236.444 331.563 235.853 331.823C235.27 332.093 234.591 332.086 234.019 331.9C232.865 331.511 232.017 330.738 231.101 330.218C230.648 329.953 230.176 329.734 229.694 329.686C229.216 329.64 228.735 329.757 228.354 330.025C227.581 330.574 227.172 331.484 226.66 332.245C225.648 333.862 223.907 334.628 222.438 334.681C220.931 334.755 219.708 334.115 218.937 333.44C218.15 332.752 217.757 332.02 217.552 331.521C217.351 331.015 217.325 330.727 217.325 330.727C217.347 330.721 217.407 331.001 217.629 331.487C217.855 331.966 218.262 332.667 219.042 333.315C219.808 333.952 220.992 334.539 222.425 334.446C223.83 334.372 225.469 333.626 226.412 332.083C226.91 331.34 227.297 330.401 228.17 329.759C228.605 329.448 229.173 329.301 229.728 329.353C230.287 329.406 230.801 329.646 231.274 329.918C232.224 330.456 233.084 331.21 234.127 331.549C234.642 331.711 235.206 331.709 235.7 331.48C236.196 331.259 236.599 330.838 236.934 330.355C237.622 329.405 238.094 328.179 239.173 327.336C239.709 326.921 240.383 326.707 241.047 326.631C241.715 326.556 242.385 326.597 243.045 326.663C245.656 327.031 248.369 326.976 251.131 326.609C252.51 326.428 253.865 326.186 255.197 325.924C255.863 325.788 256.523 325.652 257.179 325.518C257.827 325.366 258.51 325.276 259.077 325.056C259.651 324.845 260.033 324.341 260 323.752C259.987 323.17 259.705 322.591 259.34 322.12C258.571 321.179 257.487 320.528 256.375 320.164C254.126 319.432 251.656 319.911 250.072 321.3C248.46 322.666 247.652 324.643 247.608 326.423C247.599 328.225 248.322 329.771 248.894 331.09C249.489 332.414 249.991 333.579 250.221 334.59C250.445 335.602 250.411 336.43 250.266 336.955C250.131 337.48 249.992 337.733 249.992 337.733Z" fill="#263238"/>
<path d="M270.667 324.931C270.67 324.945 270.49 324.998 270.145 325.086C269.757 325.18 269.255 325.301 268.631 325.451C267.265 325.768 265.372 326.207 263.054 326.744C258.345 327.836 251.848 329.377 244.7 331.189C237.55 333.004 231.104 334.746 226.444 336.031C224.15 336.663 222.277 337.18 220.925 337.552C220.305 337.717 219.806 337.85 219.42 337.952C219.075 338.039 218.891 338.078 218.887 338.064C218.883 338.05 219.058 337.984 219.396 337.871C219.776 337.749 220.268 337.591 220.879 337.395C222.169 336.988 224.042 336.424 226.363 335.745C231.004 334.387 237.442 332.598 244.597 330.782C251.75 328.969 258.261 327.472 262.989 326.454C265.353 325.944 267.269 325.548 268.596 325.29C269.227 325.171 269.734 325.076 270.126 325.002C270.479 324.942 270.664 324.917 270.667 324.931Z" fill="#263238"/>
<path d="M188.658 105.508L110.988 122.815L114.24 137.407L191.909 120.101L188.658 105.508Z" fill="#E0E0E0"/>
<path d="M262.119 342.306L287.211 474.868L310.141 432.501L353.603 458.009L307.468 328.925L262.119 342.306Z" fill="#787878"/>
<g opacity="0.3">
<path d="M270.558 386.89C275.196 387.845 280.61 386.205 283.901 382.8C286.187 380.435 287.712 377.222 290.595 375.638C293.183 374.216 296.374 374.419 299.22 375.205C302.066 375.991 304.746 377.31 307.604 378.051C313.206 379.505 319.384 378.587 324.323 375.569L317.085 355.469L283.482 351.272L267.46 370.518L270.558 386.89Z" fill="black"/>
</g>
<path d="M308.506 427.236C308.367 427.272 304.63 413.505 300.161 396.489C295.69 379.467 292.18 365.643 292.319 365.607C292.458 365.571 296.194 379.335 300.665 396.357C305.134 413.372 308.645 427.199 308.506 427.236Z" fill="#263238"/>
<path d="M265.793 349.202L240.7 481.763L217.77 439.396L174.308 464.905L220.443 335.821L265.793 349.202Z" fill="#787878"/>
<g opacity="0.3">
<path d="M206.644 374.429C206.644 374.429 213.78 380.304 222.295 377.597C230.809 374.89 236.095 374.321 240.701 377.597C245.307 380.873 257.777 391.553 257.777 391.553L260.672 376.259L243.926 353.26L226.437 356.791L213.982 358.035L209.352 366.799L206.644 374.429Z" fill="black"/>
</g>
<path d="M412.904 229.537C412.904 239.048 400.747 247.241 398.969 256.23C397.137 265.492 405.2 277.701 401.666 286.223C398.071 294.894 383.701 297.809 378.541 305.516C373.342 313.282 376.115 327.667 369.53 334.251C362.946 340.835 348.561 338.062 340.795 343.261C333.088 348.421 330.173 362.79 321.502 366.386C312.98 369.92 300.771 361.857 291.509 363.689C282.52 365.467 274.327 377.624 264.816 377.624C255.305 377.624 247.112 365.467 238.123 363.689C228.861 361.857 216.652 369.919 208.13 366.386C199.459 362.791 196.544 348.421 188.837 343.261C181.071 338.062 166.686 340.835 160.102 334.25C153.518 327.666 156.291 313.281 151.092 305.515C145.933 297.808 131.563 294.893 127.967 286.222C124.433 277.7 132.496 265.491 130.664 256.229C128.886 247.24 116.729 239.047 116.729 229.536C116.729 220.025 128.886 211.832 130.664 202.843C132.496 193.581 124.433 181.372 127.967 172.85C131.562 164.179 145.932 161.264 151.092 153.557C156.291 145.791 153.518 131.406 160.103 124.822C166.687 118.238 181.072 121.011 188.838 115.812C196.545 110.652 199.46 96.283 208.131 92.687C216.653 89.153 228.862 97.216 238.124 95.384C247.113 93.606 255.306 81.449 264.817 81.449C274.328 81.449 282.521 93.606 291.51 95.384C300.772 97.216 312.981 89.154 321.503 92.687C330.174 96.282 333.089 110.652 340.796 115.812C348.562 121.011 362.947 118.238 369.531 124.822C376.115 131.406 373.342 145.791 378.541 153.557C383.7 161.264 398.07 164.179 401.666 172.85C405.2 181.372 397.137 193.581 398.969 202.843C400.747 211.833 412.904 220.026 412.904 229.537Z" fill="#787878"/>
<path d="M230.168 146.531C230.152 146.539 230.06 146.398 229.899 146.122C229.714 145.79 229.489 145.388 229.217 144.903C228.631 143.841 227.822 142.283 226.858 140.341C224.926 136.458 222.428 131.005 220.019 124.838C217.615 118.667 215.759 112.962 214.552 108.797C213.947 106.715 213.487 105.021 213.199 103.843C213.07 103.302 212.963 102.854 212.875 102.485C212.807 102.173 212.779 102.007 212.796 102.002C212.813 101.997 212.875 102.154 212.976 102.457C213.09 102.819 213.228 103.258 213.394 103.789C213.775 105.024 214.285 106.68 214.904 108.691C216.2 112.822 218.106 118.494 220.504 124.65C222.907 130.802 225.345 136.265 227.189 140.183C228.095 142.082 228.841 143.646 229.397 144.812C229.633 145.315 229.83 145.732 229.991 146.075C230.122 146.365 230.184 146.522 230.168 146.531Z" fill="#263238"/>
<path d="M243.346 141.519C243.311 141.528 243.177 141.135 242.964 140.416C242.749 139.698 242.466 138.651 242.136 137.353C241.476 134.756 240.658 131.144 239.918 127.123C239.18 123.1 238.661 119.432 238.356 116.77C238.203 115.439 238.096 114.36 238.042 113.613C237.986 112.866 237.972 112.451 238.007 112.447C238.043 112.443 238.125 112.85 238.243 113.589C238.373 114.438 238.532 115.485 238.721 116.721C239.119 119.366 239.694 123.015 240.43 127.028C241.168 131.04 241.927 134.655 242.494 137.268C242.757 138.491 242.98 139.526 243.16 140.366C243.313 141.1 243.381 141.51 243.346 141.519Z" fill="#263238"/>
<path d="M266.596 139.209C266.452 139.212 266.083 127.995 265.77 114.158C265.457 100.316 265.32 89.096 265.464 89.093C265.608 89.09 265.977 100.305 266.29 114.147C266.602 127.983 266.739 139.206 266.596 139.209Z" fill="#263238"/>
<path d="M289.991 116.161C290.128 116.204 288.514 121.813 286.386 128.687C284.257 135.564 282.42 141.103 282.283 141.061C282.146 141.019 283.76 135.411 285.889 128.533C288.017 121.658 289.853 116.118 289.991 116.161Z" fill="#263238"/>
<path d="M299.54 145.147C299.523 145.141 299.567 144.978 299.666 144.674C299.79 144.315 299.941 143.88 300.122 143.355C300.524 142.211 301.146 140.572 301.923 138.549C303.486 134.507 305.734 128.959 308.292 122.864C310.85 116.766 313.227 111.273 314.98 107.311C315.844 105.392 316.555 103.811 317.086 102.632C317.324 102.13 317.522 101.714 317.685 101.372C317.827 101.086 317.91 100.94 317.927 100.947C317.944 100.954 317.893 101.115 317.781 101.414C317.643 101.767 317.475 102.196 317.272 102.713C316.78 103.909 316.12 105.511 315.319 107.457C313.615 111.521 311.315 117.005 308.773 123.066C306.246 129.13 303.96 134.618 302.266 138.686C301.465 140.631 300.805 142.233 300.312 143.428C300.094 143.939 299.914 144.363 299.765 144.712C299.633 145.003 299.556 145.153 299.54 145.147Z" fill="#263238"/>
<path d="M312.041 151.666C312.011 151.646 312.216 151.285 312.611 150.648C313.005 150.01 313.599 149.103 314.35 147.994C315.852 145.775 318.008 142.764 320.522 139.539C323.039 136.314 325.435 133.49 327.221 131.493C328.114 130.494 328.849 129.698 329.372 129.16C329.893 128.621 330.194 128.335 330.221 128.359C330.248 128.383 329.998 128.715 329.524 129.294C328.976 129.955 328.3 130.77 327.501 131.733C325.789 133.788 323.444 136.642 320.933 139.859C318.425 143.076 316.228 146.045 314.651 148.206C313.912 149.215 313.286 150.07 312.778 150.762C312.332 151.363 312.071 151.686 312.041 151.666Z" fill="#263238"/>
<path d="M330.222 166.571C330.124 166.466 338.036 158.945 347.892 149.776C357.751 140.604 365.821 133.256 365.919 133.361C366.017 133.466 358.106 140.985 348.247 150.157C338.391 159.327 330.32 166.676 330.222 166.571Z" fill="#263238"/>
<path d="M361.984 169.677C362.016 169.749 360.844 170.336 358.97 171.319C357.094 172.299 354.537 173.713 351.718 175.296C348.897 176.88 346.299 178.25 344.374 179.148C343.412 179.597 342.626 179.946 342.073 180.164C341.522 180.386 341.21 180.493 341.195 180.46C341.163 180.389 342.335 179.801 344.209 178.818C346.085 177.838 348.642 176.424 351.463 174.84C354.283 173.257 356.881 171.887 358.805 170.988C359.767 170.539 360.553 170.19 361.106 169.972C361.658 169.751 361.969 169.644 361.984 169.677Z" fill="#263238"/>
<path d="M391.388 181.874C391.436 182.01 382.017 185.449 370.354 189.555C358.687 193.662 349.193 196.881 349.145 196.746C349.097 196.61 358.514 193.172 370.181 189.064C381.845 184.958 391.34 181.738 391.388 181.874Z" fill="#263238"/>
<path d="M400.747 235.34C400.733 235.483 390.498 234.626 377.888 233.426C365.274 232.225 355.063 231.136 355.076 230.993C355.09 230.85 365.323 231.707 377.937 232.908C390.547 234.108 400.76 235.197 400.747 235.34Z" fill="#263238"/>
<path d="M393.221 283.297C393.16 283.427 383.59 279.035 371.849 273.488C360.104 267.939 350.636 263.338 350.698 263.208C350.759 263.078 360.327 267.469 372.072 273.018C383.812 278.564 393.282 283.167 393.221 283.297Z" fill="#263238"/>
<path d="M361.74 328.925C361.63 329.018 354.728 321.012 346.325 311.046C337.92 301.077 331.197 292.923 331.307 292.83C331.417 292.737 338.318 300.741 346.723 310.71C355.126 320.677 361.85 328.833 361.74 328.925Z" fill="#263238"/>
<path d="M335.465 334.953C335.435 334.972 335.139 334.571 334.631 333.829C334.121 333.087 333.405 332 332.536 330.646C330.798 327.939 328.467 324.152 326.013 319.9C323.559 315.646 321.448 311.733 319.974 308.873C319.237 307.443 318.654 306.279 318.267 305.466C317.879 304.654 317.679 304.198 317.711 304.181C317.743 304.165 318.003 304.59 318.446 305.372C318.932 306.245 319.554 307.362 320.298 308.699C321.854 311.512 324.014 315.391 326.464 319.64C328.915 323.886 331.192 327.697 332.849 330.452C333.634 331.766 334.29 332.863 334.802 333.72C335.257 334.496 335.495 334.934 335.465 334.953Z" fill="#263238"/>
<path d="M319.141 357.901C319.125 357.909 319.036 357.768 318.881 357.491C318.703 357.158 318.487 356.755 318.227 356.269C317.665 355.205 316.891 353.644 315.971 351.699C314.128 347.81 311.76 342.347 309.507 336.175C307.26 329.998 305.558 324.292 304.467 320.129C303.92 318.047 303.508 316.355 303.254 315.179C303.141 314.64 303.047 314.192 302.969 313.823C302.909 313.512 302.887 313.346 302.904 313.342C302.922 313.338 302.978 313.495 303.071 313.798C303.175 314.161 303.3 314.6 303.451 315.13C303.797 316.366 304.26 318.022 304.822 320.031C306.002 324.162 307.754 329.836 309.996 335.996C312.243 342.153 314.551 347.623 316.305 351.545C317.168 353.445 317.878 355.011 318.409 356.18C318.634 356.683 318.821 357.1 318.975 357.444C319.099 357.736 319.157 357.893 319.141 357.901Z" fill="#263238"/>
<path d="M286.079 341.813C286.002 341.817 285.879 340.482 285.647 338.331C285.416 336.18 285.053 333.215 284.51 329.962C283.964 326.708 283.342 323.786 282.861 321.677C282.38 319.568 282.062 318.265 282.136 318.244C282.171 318.234 282.293 318.548 282.485 319.124C282.679 319.7 282.931 320.541 283.218 321.588C283.793 323.681 284.475 326.607 285.024 329.876C285.569 333.145 285.876 336.133 286.014 338.299C286.084 339.382 286.12 340.26 286.123 340.867C286.128 341.475 286.115 341.811 286.079 341.813Z" fill="#263238"/>
<path d="M264.452 370.599C264.434 370.599 264.419 370.422 264.408 370.086C264.402 369.69 264.394 369.205 264.385 368.616C264.372 367.339 264.38 365.492 264.422 363.21C264.498 358.645 264.707 352.341 265.073 345.386C265.434 338.428 265.882 332.137 266.25 327.587C266.436 325.312 266.602 323.473 266.732 322.203C266.798 321.618 266.852 321.135 266.896 320.742C266.939 320.408 266.972 320.234 266.99 320.236C267.008 320.237 267.011 320.415 267.001 320.751C266.983 321.146 266.961 321.631 266.934 322.22C266.855 323.572 266.747 325.396 266.617 327.615C266.351 332.242 265.991 338.499 265.593 345.415C265.228 352.366 264.961 358.663 264.79 363.222C264.707 365.443 264.638 367.268 264.588 368.622C264.558 369.21 264.534 369.695 264.514 370.09C264.491 370.423 264.47 370.599 264.452 370.599Z" fill="#263238"/>
<path d="M246.87 320.234C246.939 320.247 246.831 321.222 246.57 322.786C246.31 324.349 245.889 326.499 245.338 328.853C244.786 331.208 244.208 333.321 243.746 334.837C243.285 336.354 242.948 337.275 242.881 337.256C242.81 337.236 243.022 336.278 243.391 334.741C243.803 333.024 244.291 330.987 244.831 328.735C245.348 326.478 245.815 324.437 246.209 322.715C246.561 321.173 246.797 320.221 246.87 320.234Z" fill="#263238"/>
<path d="M215.082 304.961C215.197 305.048 213.238 307.824 210.707 311.161C208.176 314.499 206.031 317.133 205.917 317.046C205.802 316.959 207.761 314.184 210.293 310.846C212.822 307.509 214.967 304.874 215.082 304.961Z" fill="#263238"/>
<path d="M198.406 293.757C198.514 293.852 192.309 301.139 184.547 310.031C176.783 318.927 170.402 326.059 170.294 325.964C170.186 325.869 176.39 318.584 184.155 309.689C191.916 300.796 198.297 293.662 198.406 293.757Z" fill="#263238"/>
<path d="M190.061 281.355C190.152 281.466 186.7 284.462 182.35 288.047C177.999 291.633 174.399 294.449 174.307 294.338C174.216 294.227 177.667 291.231 182.018 287.645C186.368 284.06 189.969 281.244 190.061 281.355Z" fill="#263238"/>
<path d="M180.298 262.641C180.361 262.771 171.717 267.065 160.995 272.232C150.269 277.401 141.526 281.485 141.464 281.355C141.402 281.225 150.043 276.932 160.769 271.763C171.491 266.596 180.236 262.512 180.298 262.641Z" fill="#263238"/>
<path d="M176.375 253.307C176.382 253.342 176.062 253.435 175.477 253.573C174.893 253.713 174.042 253.888 172.986 254.083C170.875 254.475 167.939 254.92 164.678 255.248C161.415 255.573 158.449 255.718 156.302 255.753C155.228 255.771 154.36 255.768 153.759 255.746C153.159 255.727 152.827 255.699 152.826 255.663C152.825 255.587 154.15 255.514 156.287 255.385C158.425 255.256 161.375 255.054 164.625 254.73C167.874 254.404 170.805 254.017 172.926 253.72C175.048 253.423 176.361 253.232 176.375 253.307Z" fill="#263238"/>
<path d="M173.21 231.762C173.207 231.798 172.584 231.782 171.46 231.724C170.251 231.662 168.647 231.579 166.704 231.48C162.689 231.285 157.138 231.102 151.006 231.132C144.872 231.167 139.323 231.41 135.31 231.648C133.369 231.769 131.766 231.868 130.557 231.943C129.435 232.014 128.812 232.036 128.808 232C128.805 231.964 129.421 231.874 130.539 231.741C131.657 231.605 133.278 231.445 135.284 231.28C139.296 230.948 144.855 230.646 151.002 230.61C157.147 230.579 162.709 230.822 166.724 231.111C168.732 231.254 170.355 231.397 171.474 231.521C172.596 231.643 173.213 231.726 173.21 231.762Z" fill="#263238"/>
<path d="M175.173 212.839C175.134 212.978 168.659 211.292 160.712 209.074C152.762 206.856 146.351 204.946 146.389 204.807C146.428 204.668 152.902 206.354 160.852 208.572C168.799 210.79 175.212 212.701 175.173 212.839Z" fill="#263238"/>
<path d="M179.358 196.974C179.352 196.991 179.19 196.954 178.886 196.868C178.525 196.759 178.089 196.626 177.563 196.467C176.416 196.113 174.772 195.553 172.755 194.819C168.721 193.354 163.222 191.111 157.341 188.219C151.462 185.319 146.331 182.327 142.71 180.022C140.899 178.871 139.453 177.909 138.473 177.216C138.026 176.896 137.656 176.631 137.349 176.412C137.095 176.224 136.967 176.117 136.977 176.102C136.987 176.087 137.135 176.164 137.407 176.325C137.728 176.522 138.116 176.76 138.584 177.047C139.597 177.688 141.071 178.601 142.903 179.709C146.566 181.929 151.709 184.861 157.57 187.751C163.433 190.634 168.892 192.924 172.884 194.474C174.88 195.251 176.502 195.863 177.628 196.275C178.141 196.471 178.566 196.634 178.918 196.768C179.213 196.887 179.364 196.957 179.358 196.974Z" fill="#263238"/>
<path d="M188.771 181.025C188.688 181.143 183.626 177.72 177.465 173.382C171.302 169.042 166.375 165.43 166.458 165.312C166.541 165.194 171.602 168.616 177.765 172.956C183.926 177.295 188.854 180.908 188.771 181.025Z" fill="#263238"/>
<path d="M168.876 132.417C168.888 132.404 169.018 132.5 169.255 132.694C169.534 132.933 169.869 133.22 170.272 133.565C171.205 134.392 172.448 135.494 173.955 136.829C177.114 139.648 181.367 143.442 186.068 147.636C190.789 151.81 195.059 155.587 198.231 158.391C199.735 159.73 200.976 160.834 201.907 161.663C202.297 162.022 202.621 162.321 202.891 162.57C203.112 162.782 203.223 162.9 203.211 162.913C203.199 162.927 203.066 162.836 202.822 162.65C202.535 162.421 202.189 162.147 201.774 161.817C200.87 161.085 199.577 160.011 197.989 158.67C194.813 155.989 190.464 152.238 185.721 148.026C180.98 143.814 176.742 139.94 173.705 137.102C172.187 135.683 170.966 134.525 170.133 133.715C169.756 133.342 169.443 133.031 169.182 132.772C168.97 132.552 168.864 132.43 168.876 132.417Z" fill="#263238"/>
<path d="M200.071 133.326C200.099 133.303 200.34 133.551 200.751 134.018C201.163 134.484 201.739 135.176 202.435 136.044C203.827 137.779 205.679 140.235 207.596 143.037C209.513 145.841 211.13 148.458 212.242 150.385C212.799 151.348 213.234 152.136 213.519 152.689C213.805 153.242 213.949 153.556 213.918 153.573C213.852 153.611 213.118 152.448 211.928 150.576C210.738 148.702 209.077 146.126 207.167 143.331C205.256 140.538 203.458 138.056 202.143 136.268C200.829 134.479 200.012 133.374 200.071 133.326Z" fill="#263238"/>
<g opacity="0.2">
<path d="M160.104 124.823L203.607 162.914L214.421 154.261L189.176 115.578C189.176 115.578 187.242 117.001 182.215 118.437C177.346 119.829 163.008 120.201 160.104 124.823Z" fill="black"/>
</g>
<g opacity="0.2">
<path d="M208.528 92.601L229.773 145.773L243.346 141.52L238.823 95.403C238.823 95.403 236.485 95.95 231.299 95.291C226.275 94.652 214.08 89.884 208.528 92.601Z" fill="black"/>
</g>
<g opacity="0.3">
<path d="M265.171 81.467L266.596 139.209L279.321 139.82L292.204 95.503C291.959 95.481 288.634 94.906 284.713 92.4C280.306 89.585 271.334 81.008 265.171 81.467Z" fill="black"/>
</g>
<g opacity="0.2">
<path d="M320.65 92.376L299.539 145.608L311.033 151.103L340.084 115.242C339.866 115.127 337.113 112.834 334.567 108.755C331.799 104.318 327.081 94.153 320.65 92.376Z" fill="black"/>
</g>
<g opacity="0.2">
<path d="M370.229 125.594L330.907 166.571L339.671 178.381L378.091 152.738C378.091 152.738 376.477 150.18 375.564 145.257C374.639 140.277 374.505 131.203 370.229 125.594Z" fill="black"/>
</g>
<g opacity="0.2">
<path d="M401.268 171.852L348.318 193.645L352.711 207.173L398.779 202.174C398.779 202.174 398.491 200.75 399.096 195.557C399.683 190.526 404.966 179.29 401.268 171.852Z" fill="black"/>
</g>
<g opacity="0.2">
<path d="M412.986 229.537L355.262 231.558L354.782 244.288L398.817 257.171C398.836 256.925 399.229 254.438 400.563 251.915C403.805 245.784 412.986 237.14 412.986 229.537Z" fill="black"/>
</g>
<g opacity="0.2">
<path d="M402.353 284.121L349.203 263.405L343.827 274.955L379.986 303.634C380.099 303.415 382.211 301.458 386.263 298.87C390.672 296.056 401.13 291.51 402.353 284.121Z" fill="black"/>
</g>
<g opacity="0.2">
<path d="M324.176 283.297L311.021 294.338C312.017 295.38 329.551 325.178 340.353 343.6C340.502 343.491 340.641 343.364 340.793 343.261C347.909 338.497 360.567 340.407 367.704 335.696L324.176 283.297Z" fill="black"/>
<path d="M300.003 304.181L280.361 310.878L289.661 364.202C290.274 363.988 290.89 363.812 291.51 363.689C300.772 361.857 312.981 369.92 321.503 366.386C322.675 365.9 323.734 365.205 324.722 364.375L300.003 304.181Z" fill="black"/>
<path d="M264.136 377.597L267.275 307.936L250.293 303.634L237.657 363.612C237.813 363.637 237.97 363.658 238.125 363.688C246.898 365.424 254.914 377.041 264.136 377.597Z" fill="black"/>
<path d="M221.435 296.11C221.435 296.11 198.994 326.167 187.262 342.355C187.811 342.628 188.339 342.927 188.838 343.261C196.545 348.421 199.46 362.791 208.131 366.386C208.529 366.551 208.937 366.683 209.35 366.8L240.699 307.461L221.435 296.11Z" fill="black"/>
<path d="M198.406 271.908L150.546 304.803C150.729 305.04 150.929 305.268 151.094 305.515C156.293 313.281 153.52 327.666 160.104 334.25C160.71 334.856 161.4 335.36 162.127 335.821C179.039 316.758 209.399 282.544 210.499 281.355L198.406 271.908Z" fill="black"/>
<path d="M187.44 248.423L130.855 257.562C131.756 266.638 124.602 278.103 127.969 286.222C128.175 286.719 128.425 287.191 128.698 287.652C148.5 277.793 189.874 257.284 191.595 257.171L187.44 248.423Z" fill="black"/>
<path d="M184.35 216.904L130.859 201.467C130.814 201.932 130.755 202.393 130.665 202.845C128.887 211.834 116.73 220.027 116.73 229.538C116.73 230.176 116.789 230.808 116.891 231.435H182.184L184.35 216.904Z" fill="black"/>
<path d="M128.185 172.426C148.173 183.139 187.263 204.808 187.263 204.808L196.883 186.539L151.696 152.518C151.503 152.871 151.315 153.229 151.093 153.559C146.022 161.134 132.074 164.093 128.185 172.426Z" fill="black"/>
</g>
<path d="M412.904 229.537C412.904 229.537 412.879 229.324 412.841 228.904C412.787 228.486 412.806 227.849 412.577 227.044C412.263 225.412 411.349 223.067 409.58 220.34C407.863 217.577 405.26 214.494 402.546 210.581C401.223 208.614 399.847 206.393 399.112 203.727C398.379 201.057 398.519 198.051 399.094 195.02C399.646 191.971 400.555 188.831 401.35 185.5C402.085 182.187 402.877 178.568 402.138 174.885C401.745 173.066 400.881 171.331 399.653 169.824C398.412 168.322 396.853 167.06 395.206 165.877C391.887 163.522 388.074 161.636 384.421 159.179C382.605 157.945 380.801 156.571 379.318 154.817C377.819 153.068 376.848 150.887 376.193 148.631C374.907 144.084 374.624 139.217 373.647 134.356C373.149 131.937 372.476 129.478 371.184 127.298C369.92 125.1 367.875 123.4 365.488 122.37C363.106 121.313 360.488 120.765 357.841 120.326C355.187 119.89 352.474 119.581 349.746 119.097C347.03 118.609 344.245 117.965 341.73 116.573C339.2 115.191 337.223 112.969 335.566 110.603C333.906 108.218 332.479 105.658 330.959 103.131C329.437 100.612 327.837 98.079 325.761 95.926C323.688 93.793 320.923 92.258 317.874 92.058C314.838 91.832 311.762 92.413 308.73 93.132C305.69 93.862 302.647 94.75 299.494 95.342C296.368 95.952 293.006 96.167 289.837 95.161C286.715 94.077 283.962 92.184 281.304 90.234C278.642 88.275 276.041 86.188 273.189 84.456C270.352 82.78 267.113 81.383 263.744 81.761L263.119 81.809C262.913 81.844 262.709 81.898 262.504 81.941C262.096 82.038 261.681 82.113 261.277 82.227C260.485 82.519 259.672 82.756 258.916 83.151C257.363 83.841 255.917 84.776 254.483 85.724C251.635 87.666 248.95 89.896 246.033 91.877C244.59 92.888 243.045 93.775 241.431 94.538C239.798 95.274 238.024 95.718 236.223 95.854C232.603 96.031 229.044 95.214 225.556 94.334C222.059 93.458 218.561 92.454 214.953 92.108C213.153 91.957 211.33 92.033 209.584 92.469C207.825 92.892 206.265 93.891 204.881 95.053C202.123 97.46 200.195 100.698 198.278 103.882C196.366 107.084 194.55 110.423 192.01 113.297C190.729 114.708 189.247 115.995 187.511 116.866C185.776 117.718 183.926 118.288 182.054 118.73C178.295 119.555 174.455 119.908 170.671 120.593C166.929 121.273 163.035 122.337 160.26 125.026C158.925 126.397 157.99 128.113 157.304 129.916C156.603 131.722 156.201 133.643 155.846 135.568C155.145 139.426 154.822 143.388 153.887 147.283C153.442 149.23 152.773 151.158 151.759 152.917C150.743 154.675 149.335 156.2 147.751 157.452C144.591 159.992 140.997 161.872 137.564 163.974C135.852 165.033 134.161 166.135 132.605 167.408C131.073 168.699 129.681 170.181 128.727 171.931C127.76 173.671 127.318 175.679 127.334 177.694C127.327 179.71 127.629 181.729 128.036 183.728C128.882 187.725 130.151 191.662 130.828 195.772C131.181 197.819 131.308 199.937 131.034 202.029C130.765 204.128 129.954 206.123 128.945 207.958C126.862 211.613 124.142 214.817 121.731 218.22C120.513 219.913 119.389 221.678 118.506 223.556C117.629 225.428 117.008 227.446 116.993 229.514C117.006 231.582 117.613 233.603 118.487 235.478C119.364 237.36 120.491 239.124 121.707 240.819C124.116 244.225 126.84 247.427 128.926 251.082C129.938 252.916 130.754 254.908 131.031 257.008C131.312 259.1 131.187 261.22 130.834 263.268C130.162 267.38 128.89 271.319 128.044 275.317C127.637 277.316 127.331 279.335 127.334 281.352C127.312 283.368 127.757 285.376 128.716 287.12C129.665 288.873 131.056 290.358 132.587 291.651C134.144 292.923 135.832 294.029 137.545 295.088C140.98 297.191 144.574 299.072 147.737 301.609C149.32 302.862 150.732 304.383 151.751 306.14C152.769 307.898 153.437 309.827 153.884 311.773C154.822 315.668 155.144 319.632 155.844 323.49C156.198 325.416 156.601 327.337 157.301 329.144C157.987 330.947 158.917 332.667 160.254 334.038C163.026 336.732 166.921 337.797 170.663 338.478C174.448 339.164 178.289 339.517 182.049 340.341C183.922 340.782 185.771 341.352 187.507 342.203C189.243 343.075 190.726 344.361 192.008 345.772C194.549 348.646 196.365 351.986 198.278 355.188C200.196 358.372 202.124 361.611 204.882 364.019C206.266 365.181 207.826 366.18 209.586 366.604C211.332 367.04 213.156 367.116 214.956 366.965C218.564 366.618 222.063 365.614 225.56 364.738C229.049 363.858 232.608 363.041 236.229 363.219C238.03 363.356 239.804 363.801 241.437 364.537C243.051 365.301 244.596 366.188 246.039 367.199C248.956 369.181 251.641 371.411 254.49 373.353C255.924 374.301 257.37 375.236 258.924 375.925C259.68 376.321 260.494 376.557 261.286 376.849C261.691 376.962 262.105 377.038 262.513 377.135C262.718 377.178 262.922 377.233 263.128 377.267L263.753 377.315C267.123 377.692 270.361 376.291 273.198 374.616C276.05 372.882 278.651 370.796 281.313 368.836C283.972 366.887 286.724 364.992 289.848 363.911C293.018 362.906 296.379 363.124 299.506 363.735C302.659 364.327 305.702 365.216 308.742 365.946C311.775 366.664 314.851 367.244 317.887 367.017C320.935 366.812 323.7 365.277 325.771 363.141C327.846 360.987 329.446 358.453 330.967 355.934C332.487 353.407 333.914 350.848 335.574 348.462C337.233 346.097 339.211 343.876 341.743 342.496C344.259 341.106 347.045 340.465 349.76 339.977C352.488 339.493 355.201 339.184 357.855 338.748C360.502 338.308 363.12 337.76 365.501 336.701C367.887 335.669 369.931 333.966 371.193 331.767C372.483 329.586 373.155 327.128 373.652 324.708C374.628 319.847 374.911 314.979 376.199 310.434C376.853 308.178 377.827 305.998 379.328 304.25C380.812 302.497 382.616 301.124 384.433 299.891C388.087 297.435 391.899 295.548 395.217 293.193C396.864 292.01 398.421 290.746 399.662 289.245C400.889 287.737 401.751 286.001 402.142 284.182C402.568 282.362 402.458 280.505 402.295 278.733C402.119 276.95 401.72 275.238 401.351 273.568C400.555 270.238 399.647 267.098 399.095 264.05C398.521 261.019 398.383 258.013 399.116 255.344C399.852 252.679 401.228 250.458 402.551 248.491C405.265 244.579 407.868 241.497 409.584 238.734C411.353 236.007 412.267 233.663 412.58 232.031C412.809 231.226 412.79 230.589 412.843 230.172C412.879 229.75 412.904 229.537 412.904 229.537C412.904 229.537 412.896 229.75 412.868 230.171C412.823 230.59 412.851 231.23 412.63 232.04C412.333 233.682 411.43 236.045 409.671 238.788C407.964 241.567 405.37 244.666 402.677 248.576C401.365 250.541 400.004 252.756 399.287 255.388C398.572 258.022 398.713 260.995 399.293 264.012C399.85 267.045 400.764 270.178 401.569 273.514C401.942 275.189 402.346 276.906 402.529 278.705C402.697 280.493 402.814 282.371 402.384 284.231C401.989 286.089 401.108 287.871 399.861 289.407C398.601 290.937 397.028 292.217 395.371 293.411C392.034 295.787 388.22 297.682 384.593 300.13C382.79 301.358 381.008 302.721 379.557 304.441C378.092 306.152 377.142 308.284 376.497 310.518C375.227 315.017 374.949 319.878 373.975 324.772C373.477 327.209 372.803 329.701 371.484 331.939C370.195 334.197 368.074 335.967 365.642 337.019C363.213 338.102 360.57 338.656 357.912 339.101C355.247 339.543 352.535 339.855 349.824 340.339C347.124 340.826 344.373 341.468 341.924 342.826C339.466 344.168 337.532 346.336 335.889 348.683C334.246 351.047 332.824 353.601 331.303 356.136C329.779 358.664 328.171 361.221 326.056 363.422C323.954 365.606 321.059 367.216 317.922 367.425C314.804 367.661 311.692 367.07 308.644 366.352C305.591 365.621 302.551 364.737 299.428 364.153C296.325 363.549 293.045 363.349 289.982 364.322C286.945 365.375 284.22 367.244 281.573 369.19C278.92 371.145 276.314 373.24 273.427 374.998C272.683 375.4 271.973 375.866 271.188 376.201C270.801 376.377 270.421 376.572 270.027 376.734L268.817 377.163C267.187 377.658 265.443 377.991 263.711 377.765L263.061 377.714C262.847 377.68 262.637 377.623 262.425 377.579C262.003 377.48 261.574 377.401 261.156 377.284C260.343 376.986 259.504 376.741 258.733 376.339C257.144 375.634 255.681 374.688 254.232 373.732C251.36 371.776 248.67 369.545 245.778 367.583C244.346 366.58 242.825 365.71 241.246 364.963C239.65 364.246 237.947 363.822 236.198 363.688C232.678 363.516 229.155 364.318 225.675 365.199C222.187 366.073 218.672 367.088 214.996 367.443C213.16 367.597 211.28 367.524 209.46 367.07C207.622 366.627 205.99 365.585 204.564 364.386C201.721 361.902 199.783 358.629 197.856 355.438C195.941 352.232 194.127 348.911 191.64 346.102C190.384 344.722 188.958 343.488 187.281 342.645C185.598 341.821 183.785 341.261 181.938 340.826C178.223 340.012 174.388 339.659 170.571 338.97C168.669 338.602 166.749 338.209 164.917 337.484C163.089 336.777 161.325 335.797 159.894 334.392C158.492 332.955 157.529 331.169 156.825 329.321C156.108 327.467 155.701 325.521 155.343 323.579C154.637 319.69 154.313 315.733 153.386 311.892C152.945 309.971 152.289 308.09 151.307 306.396C150.325 304.704 148.968 303.236 147.411 302.004C144.308 299.514 140.727 297.636 137.274 295.525C135.55 294.459 133.843 293.343 132.255 292.046C130.692 290.726 129.252 289.196 128.259 287.363C127.254 285.539 126.792 283.425 126.815 281.356C126.811 279.281 127.124 277.228 127.535 275.209C128.39 271.176 129.658 267.241 130.32 263.185C130.668 261.164 130.785 259.096 130.515 257.078C130.249 255.058 129.465 253.137 128.471 251.334C126.423 247.743 123.709 244.547 121.282 241.118C120.058 239.412 118.914 237.623 118.015 235.696C117.12 233.776 116.485 231.68 116.472 229.512C116.488 227.343 117.136 225.251 118.034 223.335C118.938 221.412 120.08 219.623 121.306 217.919C123.735 214.494 126.445 211.297 128.49 207.705C129.481 205.901 130.26 203.979 130.519 201.959C130.783 199.942 130.664 197.874 130.315 195.854C129.649 191.8 128.382 187.866 127.529 183.834C127.119 181.815 126.809 179.762 126.817 177.688C126.799 175.62 127.259 173.505 128.272 171.685C129.27 169.856 130.712 168.328 132.276 167.011C133.863 165.713 135.572 164.6 137.295 163.535C140.746 161.424 144.327 159.547 147.427 157.055C148.984 155.824 150.338 154.353 151.317 152.66C152.295 150.964 152.952 149.084 153.391 147.163C154.315 143.323 154.64 139.367 155.346 135.479C155.705 133.538 156.112 131.592 156.83 129.739C157.534 127.891 158.501 126.108 159.902 124.671C161.335 123.268 163.1 122.291 164.928 121.585C166.76 120.862 168.679 120.468 170.581 120.101C174.397 119.412 178.23 119.06 181.945 118.245C183.792 117.81 185.604 117.25 187.286 116.425C188.963 115.583 190.387 114.347 191.643 112.968C194.129 110.16 195.943 106.839 197.857 103.633C199.783 100.442 201.722 97.17 204.564 94.687C205.99 93.489 207.622 92.447 209.46 92.004C211.279 91.55 213.159 91.477 214.995 91.631C218.67 91.986 222.185 93.001 225.672 93.875C229.152 94.756 232.674 95.558 236.194 95.387C237.942 95.253 239.645 94.83 241.241 94.113C242.819 93.367 244.34 92.497 245.773 91.494C248.665 89.532 251.354 87.302 254.226 85.346C255.674 84.389 257.137 83.444 258.726 82.739C259.497 82.337 260.335 82.091 261.148 81.793C261.565 81.675 261.994 81.597 262.416 81.497C262.628 81.452 262.839 81.397 263.052 81.361L263.702 81.31C265.434 81.083 267.178 81.416 268.808 81.909L270.018 82.338C270.413 82.499 270.792 82.694 271.18 82.87C271.965 83.205 272.676 83.67 273.419 84.072C276.307 85.829 278.912 87.924 281.565 89.879C284.211 91.826 286.936 93.694 289.972 94.749C293.034 95.723 296.314 95.526 299.417 94.922C302.54 94.338 305.58 93.455 308.633 92.723C311.68 92.005 314.792 91.413 317.91 91.647C321.047 91.85 323.942 93.461 326.047 95.641C328.163 97.841 329.772 100.398 331.296 102.926C332.817 105.461 334.239 108.015 335.881 110.379C337.522 112.727 339.456 114.896 341.912 116.24C344.36 117.599 347.111 118.244 349.81 118.731C352.521 119.215 355.234 119.527 357.898 119.968C360.556 120.413 363.199 120.966 365.629 122.047C368.061 123.097 370.185 124.865 371.476 127.121C372.797 129.358 373.472 131.85 373.97 134.286C374.946 139.18 375.223 144.04 376.491 148.541C377.137 150.775 378.085 152.908 379.548 154.62C380.999 156.341 382.78 157.705 384.582 158.934C388.208 161.383 392.023 163.277 395.36 165.653C397.017 166.847 398.591 168.125 399.851 169.656C401.099 171.191 401.982 172.972 402.378 174.83C402.81 176.69 402.693 178.569 402.526 180.357C402.344 182.156 401.941 183.874 401.567 185.548C400.762 188.885 399.848 192.018 399.291 195.051C398.711 198.068 398.568 201.041 399.283 203.676C400 206.309 401.36 208.524 402.672 210.49C405.365 214.401 407.96 217.5 409.667 220.28C411.426 223.023 412.33 225.387 412.627 227.029C412.848 227.839 412.82 228.479 412.865 228.898C412.897 229.324 412.904 229.537 412.904 229.537Z" fill="#263238"/>
<path d="M237.042 366.958C237.181 366.993 233.49 381.959 228.798 400.38C224.105 418.807 220.188 433.712 220.049 433.676C219.91 433.64 223.6 418.678 228.293 400.251C232.985 381.831 236.903 366.923 237.042 366.958Z" fill="#263238"/>
<path d="M264.817 320.313C314.951 320.313 355.593 279.671 355.593 229.537C355.593 179.403 314.951 138.761 264.817 138.761C214.683 138.761 174.041 179.403 174.041 229.537C174.041 279.671 214.683 320.313 264.817 320.313Z" fill="white"/>
<path d="M208.922 198.083C207.67 199.335 200.786 211.851 200.16 222.177C199.534 232.503 201.018 290.495 201.018 290.495L201.286 294.338C217.629 313.449 277.025 341.887 330.528 294.242L333.526 258.574L324.698 183.064L294.033 175.554L286.842 163.899L238.917 175.119L234.643 185.224L208.922 198.083Z" fill="#455A64"/>
<path d="M283.519 133.536C285.629 125.691 287.705 117.79 288.435 109.699C289.164 101.608 288.489 93.248 285.271 85.789C284.783 84.658 280.732 77.113 279.514 77.296C278.643 77.428 281.265 84.526 280.862 85.309C277.014 92.776 276.316 101.554 277.421 109.88C278.526 118.208 280.653 125.641 283.519 133.536Z" fill="#263238"/>
<path d="M282.723 102.542C282.336 82.172 270.159 65.419 249.808 66.37L247.932 66.567C229.057 68.557 214.867 84.702 215.333 103.677C215.766 121.33 216.472 140.83 217.578 150.209C219.867 169.624 239.631 170.598 239.631 170.598C239.675 170.596 240.537 183.367 240.537 183.367L248.889 192.44L287.6 168.463L282.723 102.542Z" fill="#FFBF9D"/>
<path d="M239.632 170.748C239.632 170.748 251.962 170.175 264.156 160.596C264.156 160.596 260.072 178.206 240.488 178.5L239.632 170.748Z" fill="#FF9A6C"/>
<path d="M226.516 119.513C226.618 120.984 227.95 122.111 229.488 122.032C231.024 121.953 232.189 120.699 232.086 119.227C231.983 117.756 230.653 116.627 229.117 116.706C227.578 116.785 226.413 118.042 226.516 119.513Z" fill="#263238"/>
<path d="M220.34 111.308C220.722 111.634 222.661 109.855 225.65 109.548C228.63 109.198 230.985 110.504 231.271 110.104C231.413 109.926 230.993 109.309 229.966 108.714C228.953 108.121 227.279 107.617 225.419 107.821C223.56 108.028 222.066 108.877 221.24 109.674C220.395 110.476 220.153 111.164 220.34 111.308Z" fill="#263238"/>
<path d="M252.91 117.271C253.013 118.742 254.344 119.869 255.883 119.79C257.419 119.711 258.584 118.457 258.481 116.985C258.378 115.514 257.047 114.386 255.511 114.464C253.972 114.544 252.808 115.8 252.91 117.271Z" fill="#263238"/>
<path d="M249.73 109.432C250.113 109.757 252.055 107.979 255.042 107.672C258.022 107.323 260.377 108.628 260.663 108.228C260.804 108.049 260.389 107.433 259.357 106.839C258.345 106.245 256.67 105.741 254.81 105.945C252.95 106.152 251.457 107.002 250.631 107.798C249.789 108.6 249.545 109.288 249.73 109.432Z" fill="#263238"/>
<path d="M241.433 133.519C241.429 133.348 239.538 133.222 236.488 133.155C235.717 133.157 234.979 133.081 234.795 132.574C234.557 132.042 234.79 131.186 235.066 130.259C235.589 128.338 236.136 126.323 236.709 124.212C238.971 115.611 240.522 108.571 240.175 108.483C239.827 108.395 237.713 115.295 235.452 123.896C234.913 126.015 234.397 128.035 233.907 129.968C233.71 130.865 233.317 131.901 233.827 133.004C234.092 133.553 234.696 133.907 235.199 133.988C235.704 134.085 236.134 134.049 236.514 134.031C239.56 133.874 241.44 133.69 241.433 133.519Z" fill="#263238"/>
<path d="M250.444 134.658C249.955 134.681 250.29 137.925 247.757 140.519C245.23 143.12 241.735 143.12 241.757 143.576C241.734 143.784 242.593 144.125 244.057 144.011C245.493 143.909 247.535 143.228 249.085 141.642C250.629 140.051 251.159 138.092 251.129 136.75C251.11 135.381 250.663 134.616 250.444 134.658Z" fill="#263238"/>
<path d="M248.617 97.291C248.997 98.073 251.94 97.373 255.489 97.426C259.04 97.408 261.975 98.136 262.363 97.359C262.533 96.989 261.96 96.276 260.734 95.61C259.519 94.944 257.633 94.388 255.503 94.376C253.375 94.368 251.483 94.905 250.261 95.559C249.03 96.212 248.45 96.919 248.617 97.291Z" fill="#263238"/>
<path d="M220.527 101.247C221.124 101.87 223.108 100.949 225.579 100.655C228.039 100.275 230.197 100.629 230.605 99.868C230.78 99.502 230.378 98.857 229.395 98.311C228.425 97.766 226.86 97.402 225.165 97.633C223.47 97.866 222.062 98.636 221.274 99.423C220.474 100.211 220.261 100.94 220.527 101.247Z" fill="#263238"/>
<path d="M282.653 117.105C282.969 116.927 295.595 111.746 296.571 125.082C297.547 138.418 283.957 136.647 283.906 136.267C283.855 135.886 282.653 117.105 282.653 117.105Z" fill="#FFBF9D"/>
<path d="M287.61 130.917C287.665 130.87 287.855 131.062 288.26 131.213C288.656 131.361 289.323 131.433 289.999 131.122C291.37 130.502 292.393 128.179 292.281 125.77C292.226 124.554 291.887 123.417 291.387 122.492C290.908 121.546 290.227 120.911 289.509 120.836C288.791 120.725 288.32 121.186 288.185 121.573C288.034 121.959 288.138 122.219 288.068 122.247C288.033 122.283 287.766 122.045 287.832 121.486C287.868 121.217 288.001 120.891 288.296 120.612C288.597 120.329 289.058 120.161 289.556 120.179C290.59 120.175 291.585 121.053 292.134 122.069C292.741 123.086 293.15 124.361 293.212 125.728C293.323 128.421 292.131 131.037 290.244 131.735C289.324 132.049 288.521 131.823 288.094 131.538C287.657 131.237 287.565 130.944 287.61 130.917Z" fill="#FF9A6C"/>
<path d="M222.544 81.015C220.308 79.963 226.339 72.552 231.491 69.802C239.278 65.646 251.382 62.617 258.913 64.239C267.979 66.19 275.662 70.145 280.654 77.961C285.646 85.777 287.934 95.112 288.27 104.38C288.372 107.208 288.269 110.17 286.915 112.654C285.241 115.724 281.784 117.813 282.203 121.872C282.356 123.356 282.028 124.884 281.079 126.035C278.805 128.79 275.661 126.541 274.13 124.183C270.86 119.145 270.132 112.926 269.489 106.955C269.031 102.711 268.579 98.375 269.516 94.21C270.025 91.944 270.939 89.775 271.322 87.484C271.705 85.193 271.472 82.636 269.948 80.883C269.7 80.598 269.298 80.244 268.793 79.856C264.801 76.787 259.447 76.136 254.818 78.117C247.475 81.259 234.898 86.056 231.382 83.721C226.324 80.363 225.017 78.045 225.017 78.045L222.544 81.015Z" fill="#263238"/>
<path d="M208.923 198.083C208.15 199.153 197.219 202.781 193.073 209.689C188.927 216.597 184.824 247.618 184.824 247.618L182.185 268.039C187.385 276.265 194.359 287.155 201.76 294.836L208.923 198.083Z" fill="#455A64"/>
<g opacity="0.3">
<path d="M291.047 228.033C291.507 232.195 291.977 236.403 293.409 240.338C294.841 244.273 297.351 247.969 301.015 249.995C302.55 250.844 304.281 251.404 305.565 252.598C306.945 253.881 307.64 255.742 308.889 257.153C310.342 258.794 312.434 259.708 314.5 260.439C320.614 262.604 326.637 263.638 333.12 263.405C333.316 261.265 333.33 253.403 333.526 251.263L291.047 228.033Z" fill="black"/>
</g>
<path d="M324.699 183.063C324.699 183.063 338.482 187.139 342.518 193.01C346.555 198.882 353.711 221.636 355.179 225.856C356.647 230.076 355.363 239.862 352.61 246.897C349.858 253.931 345.081 259.987 336.827 260.904C328.572 261.821 315.535 257.05 312.603 253.931C309.672 250.811 308.444 243.81 308.444 243.81C312.109 243.166 315.728 242.258 319.263 241.096" fill="#455A64"/>
<path d="M319.264 241.096C319.266 241.102 319.208 241.127 319.092 241.171C318.955 241.22 318.786 241.281 318.572 241.358C318.11 241.516 317.421 241.745 316.512 242.019C314.694 242.564 311.993 243.302 308.469 243.944L308.58 243.786C308.889 245.345 309.334 247.056 309.987 248.843C310.315 249.735 310.693 250.652 311.18 251.547C311.668 252.436 312.238 253.34 313.027 254.061C313.817 254.779 314.793 255.363 315.815 255.899C316.832 256.451 317.928 256.926 319.058 257.389C321.326 258.303 323.779 259.09 326.38 259.707C328.981 260.309 331.744 260.755 334.604 260.764C335.32 260.796 336.034 260.7 336.757 260.664C337.47 260.546 338.2 260.481 338.906 260.28C340.336 259.956 341.74 259.422 343.047 258.674C345.685 257.209 347.92 254.936 349.616 252.261C351.335 249.592 352.592 246.563 353.52 243.398C354.239 240.967 354.768 238.509 355.112 236.065C355.461 233.623 355.632 231.183 355.471 228.813C355.379 227.619 355.158 226.5 354.755 225.39C354.383 224.27 354.015 223.161 353.65 222.063C352.917 219.871 352.2 217.725 351.5 215.631C350.081 211.451 348.681 207.496 347.278 203.833C345.849 200.188 344.516 196.759 342.846 193.897C342.031 192.458 340.915 191.329 339.734 190.415C338.575 189.475 337.372 188.726 336.229 188.065C333.93 186.758 331.84 185.831 330.121 185.111C328.398 184.397 327.037 183.899 326.11 183.571C325.666 183.415 325.317 183.292 325.055 183.2C324.818 183.116 324.696 183.071 324.699 183.062C324.701 183.054 324.828 183.081 325.071 183.149C325.337 183.229 325.692 183.336 326.143 183.471C327.082 183.767 328.457 184.235 330.196 184.923C331.932 185.616 334.042 186.519 336.372 187.811C337.531 188.465 338.752 189.209 339.94 190.155C341.141 191.065 342.317 192.238 343.161 193.705C344.881 196.607 346.229 200.025 347.681 203.676C349.105 207.341 350.522 211.296 351.954 215.475C352.66 217.568 353.383 219.714 354.122 221.905C354.488 223.001 354.858 224.108 355.232 225.226C355.64 226.335 355.89 227.567 355.979 228.772C356.147 231.201 355.975 233.668 355.624 236.137C355.278 238.608 354.746 241.088 354.019 243.546C353.081 246.746 351.806 249.819 350.05 252.541C348.318 255.268 346.018 257.607 343.293 259.113C341.943 259.882 340.492 260.43 339.02 260.76C338.291 260.964 337.542 261.031 336.809 261.149C336.068 261.185 335.333 261.28 334.604 261.246C331.687 261.228 328.898 260.765 326.275 260.148C323.652 259.515 321.185 258.71 318.9 257.776C317.761 257.302 316.657 256.816 315.627 256.25C314.592 255.697 313.605 255.103 312.77 254.336C311.939 253.564 311.362 252.627 310.869 251.714C310.378 250.794 310.004 249.862 309.679 248.956C309.034 247.14 308.605 245.419 308.31 243.835L308.285 243.7L308.421 243.677C311.94 243.076 314.644 242.382 316.471 241.882C317.361 241.628 318.052 241.431 318.549 241.29C318.767 241.227 318.94 241.178 319.08 241.138C319.201 241.104 319.262 241.09 319.264 241.096Z" fill="#263238"/>
<path d="M344.548 233.728C344.446 233.752 344.133 232.031 342.975 229.493C341.845 226.958 339.813 223.608 336.756 220.664C335.234 219.185 333.542 218.061 331.923 217.223C331.507 217.037 331.101 216.855 330.705 216.678C330.311 216.496 329.895 216.42 329.51 216.29C328.742 216.009 327.986 215.942 327.303 215.834C327.133 215.808 326.966 215.782 326.802 215.757C326.639 215.758 326.479 215.758 326.322 215.758C326.015 215.758 325.721 215.758 325.441 215.759C324.886 215.725 324.42 215.826 324.035 215.881C323.265 215.993 322.83 216.04 322.821 216.005C322.812 215.97 323.229 215.857 324.001 215.681C324.387 215.594 324.859 215.462 325.425 215.468C325.712 215.455 326.013 215.441 326.328 215.427C326.489 215.421 326.654 215.414 326.822 215.407C326.991 215.427 327.163 215.446 327.339 215.467C328.045 215.553 328.829 215.604 329.627 215.874C330.026 215.998 330.46 216.071 330.868 216.25C331.279 216.426 331.701 216.606 332.133 216.791C333.813 217.628 335.561 218.775 337.115 220.286C340.239 223.295 342.253 226.737 343.313 229.345C343.585 229.997 343.82 230.591 343.97 231.133C344.134 231.67 344.291 232.126 344.354 232.518C344.513 233.293 344.583 233.721 344.548 233.728Z" fill="#263238"/>
<path d="M352.069 221.363C351.956 221.407 351.581 219.592 349.991 217.166C348.434 214.781 345.456 211.787 341.208 210.518C336.977 209.23 332.87 209.628 330.002 209.903C328.637 210.066 327.489 210.204 326.575 210.313C325.765 210.412 325.314 210.453 325.308 210.417C325.302 210.382 325.742 210.274 326.543 210.113C327.344 209.954 328.508 209.74 329.957 209.538C332.827 209.171 336.993 208.696 341.362 210.021C343.528 210.68 345.431 211.789 346.919 213.057C348.425 214.313 349.521 215.72 350.301 216.969C351.079 218.225 351.524 219.342 351.771 220.125C352.023 220.906 352.095 221.357 352.069 221.363Z" fill="#263238"/>
<path d="M341.676 206.568C341.64 206.738 338.047 205.581 333.484 205.784C328.917 205.939 325.428 207.375 325.378 207.208C325.355 207.152 326.19 206.722 327.635 206.262C329.076 205.8 331.144 205.358 333.463 205.263C335.782 205.175 337.877 205.454 339.351 205.801C340.828 206.147 341.695 206.511 341.676 206.568Z" fill="#263238"/>
<path d="M319.377 186.503C319.459 186.516 319.26 187.909 319.099 190.167C318.938 192.424 318.863 195.557 319.173 198.993C319.456 202.298 320.054 205.26 320.582 207.415L320.221 207.531C319.812 206.375 319.49 205.437 319.279 204.784C319.068 204.131 318.968 203.763 319.003 203.75C319.038 203.737 319.205 204.079 319.476 204.71C319.747 205.341 320.123 206.259 320.576 207.398L320.215 207.514C319.597 205.366 318.939 202.38 318.654 199.04C318.341 195.567 318.476 192.4 318.732 190.135C318.858 189.002 319.006 188.09 319.129 187.465C319.255 186.839 319.342 186.497 319.377 186.503Z" fill="#263238"/>
<path d="M299.893 160.846C299.893 160.846 292.739 160.846 291.842 169.443C291.153 176.042 291.842 182.449 291.842 185.339C291.842 188.229 290.569 198.506 290.569 198.506C290.569 198.506 285.688 202.836 285.771 208.037C285.854 213.263 289.571 214.861 289.571 214.861C289.571 214.861 287.3 219.816 291.635 224.357C291.635 224.357 289.556 229.151 291.265 232.379C292.588 234.878 295.557 235.712 295.557 235.712C295.557 235.712 293.442 240.436 298.518 242.422C301.518 243.596 305.953 243.335 305.953 243.335L311.291 243.232L315.996 245.828C315.996 245.828 324.047 242.318 324.254 237.57C324.46 232.822 324.46 232.822 324.46 232.822C324.46 232.822 322.189 224.977 321.983 222.5C321.777 220.023 323.841 214.036 322.602 211.352C321.363 208.668 317.028 207.091 317.441 203.338C317.854 199.585 317.028 197.52 315.17 195.456C313.312 193.392 305.1 189.263 305.1 189.263C305.1 189.263 302.989 183.276 302.989 179.147C302.99 175.017 307.119 162.424 299.893 160.846Z" fill="#FFBF9D"/>
<path d="M304.712 190.827C304.748 190.889 303.988 191.376 302.732 192.112C301.475 192.848 299.721 193.833 297.768 194.894C295.814 195.955 294.031 196.89 292.729 197.543C291.427 198.196 290.603 198.569 290.569 198.506C290.535 198.443 291.295 197.956 292.552 197.22C293.809 196.484 295.562 195.499 297.515 194.439C299.467 193.379 301.248 192.445 302.551 191.791C303.852 191.138 304.676 190.764 304.712 190.827Z" fill="#FF9A6C"/>
<path d="M309.408 206.991C309.429 207.02 309.206 207.217 308.784 207.55C308.364 207.886 307.729 208.336 306.922 208.859C305.31 209.907 302.964 211.188 300.218 212.243C297.469 213.292 294.866 213.905 292.967 214.202C292.017 214.352 291.244 214.441 290.707 214.471C290.171 214.506 289.873 214.508 289.869 214.472C289.86 214.389 291.034 214.229 292.9 213.84C294.766 213.454 297.318 212.793 300.032 211.757C302.743 210.716 305.084 209.504 306.731 208.545C308.378 207.588 309.359 206.924 309.408 206.991Z" fill="#FF9A6C"/>
<path d="M315.549 201.85C315.679 201.895 315.411 202.813 314.563 203.579C313.721 204.352 312.782 204.533 312.749 204.4C312.699 204.258 313.464 203.886 314.212 203.194C314.97 202.515 315.412 201.787 315.549 201.85Z" fill="#FF9A6C"/>
<path d="M312.605 221.151C312.626 221.212 311.496 221.671 309.612 222.246C307.729 222.822 305.083 223.485 302.113 223.965C299.141 224.441 296.42 224.641 294.452 224.685C292.483 224.73 291.266 224.649 291.266 224.584C291.266 224.505 292.48 224.456 294.434 224.317C296.388 224.18 299.081 223.923 302.03 223.451C304.977 222.975 307.615 222.374 309.513 221.891C311.412 221.41 312.58 221.076 312.605 221.151Z" fill="#FF9A6C"/>
<path d="M319.138 219.961C319.067 219.918 319.381 219.372 319.687 218.43C319.996 217.494 320.255 216.128 320.078 214.64C319.9 213.151 319.326 211.884 318.805 211.048C318.285 210.204 317.852 209.748 317.911 209.689C317.951 209.643 318.485 210.011 319.11 210.841C319.734 211.66 320.405 212.987 320.595 214.579C320.785 216.17 320.445 217.618 320.032 218.56C319.62 219.513 319.188 219.996 319.138 219.961Z" fill="#FF9A6C"/>
<path d="M312.974 235.626C312.987 235.69 312.025 235.961 310.432 236.226C308.841 236.492 306.613 236.722 304.146 236.717C301.678 236.708 299.452 236.466 297.862 236.191C296.271 235.917 295.31 235.64 295.323 235.577C295.338 235.5 296.322 235.648 297.913 235.826C299.504 236.006 301.707 236.187 304.147 236.196C306.586 236.201 308.79 236.032 310.382 235.861C311.974 235.691 312.959 235.548 312.974 235.626Z" fill="#FF9A6C"/>
<path d="M300.278 179.264C300.307 179.319 299.954 179.588 299.286 179.827C298.622 180.067 297.629 180.235 296.546 180.108C295.463 179.977 294.537 179.581 293.948 179.192C293.354 178.803 293.074 178.459 293.116 178.412C293.206 178.282 294.567 179.369 296.608 179.591C298.642 179.855 300.221 179.117 300.278 179.264Z" fill="#FF9A6C"/>
<path d="M320.623 220.566C320.654 220.563 320.713 220.835 320.738 221.338C320.753 221.841 320.688 222.572 320.49 223.447C320.297 224.322 319.967 225.332 319.652 226.448C319.352 227.559 319.06 228.817 319.278 230.089C319.45 231.354 320.397 232.381 320.546 233.666C320.715 234.93 320.216 236 319.76 236.759C319.284 237.53 318.806 238.076 318.469 238.442C318.128 238.806 317.92 238.987 317.894 238.965C317.814 238.904 318.581 238.088 319.44 236.577C319.841 235.824 320.247 234.825 320.071 233.735C319.95 232.649 318.992 231.625 318.764 230.179C318.524 228.762 318.862 227.438 319.19 226.314C319.537 225.185 319.899 224.2 320.132 223.356C320.632 221.671 320.534 220.572 320.623 220.566Z" fill="#FF9A6C"/>
<path d="M323.312 226.848C323.346 226.84 323.468 227.173 323.647 227.787C323.826 228.402 324.066 229.297 324.292 230.423C324.511 231.549 324.733 232.906 324.77 234.437C324.801 235.956 324.651 237.7 323.866 239.336C323.061 240.948 321.902 242.211 320.792 243.251C319.667 244.284 318.563 245.097 317.616 245.744C316.667 246.388 315.873 246.867 315.314 247.18C314.756 247.494 314.435 247.646 314.417 247.616C314.373 247.545 315.572 246.792 317.403 245.444C318.314 244.765 319.381 243.931 320.464 242.901C321.533 241.866 322.64 240.627 323.398 239.108C324.131 237.583 324.296 235.923 324.291 234.442C324.282 232.952 324.102 231.609 323.931 230.487C323.562 228.245 323.229 226.868 323.312 226.848Z" fill="#263238"/>
<path d="M247.856 193.563C247.833 193.59 247.422 193.281 246.698 192.697C245.907 192.042 244.889 191.2 243.668 190.189C243.026 189.647 242.332 189.062 241.592 188.438C241.221 188.124 240.844 187.803 240.413 187.591C239.986 187.379 239.503 187.324 239.074 187.545C238.211 187.996 237.635 189.104 236.898 190.023C236.186 190.983 235.449 191.975 234.695 192.992C233.486 194.61 232.323 196.164 231.251 197.598L230.604 198.463L230.809 197.405C231.512 193.787 232.491 190.768 233.298 188.681C233.701 187.636 234.056 186.82 234.314 186.268C234.574 185.717 234.731 185.426 234.757 185.437C234.784 185.449 234.677 185.761 234.466 186.331C234.256 186.901 233.948 187.731 233.587 188.785C232.866 190.89 231.957 193.904 231.295 197.496L230.854 197.303C231.919 195.864 233.075 194.305 234.277 192.681C235.034 191.667 235.773 190.676 236.489 189.718C236.848 189.24 237.201 188.77 237.547 188.31C237.904 187.851 238.304 187.383 238.869 187.112C239.436 186.822 240.129 186.918 240.617 187.181C241.119 187.438 241.51 187.791 241.876 188.112C242.601 188.753 243.281 189.354 243.91 189.911C245.087 190.972 246.069 191.856 246.832 192.544C247.513 193.174 247.879 193.536 247.856 193.563Z" fill="#263238"/>
<path d="M290.081 185.106C290.091 185.12 289.957 185.24 289.69 185.455C289.374 185.701 288.984 186.005 288.509 186.376C287.41 187.203 285.92 188.324 284.103 189.691C280.294 192.495 275.126 196.298 269.39 200.52L269.167 200.684L269.017 200.449C268.902 200.268 268.777 200.073 268.653 199.878C265.943 195.6 263.411 191.604 261.269 188.222L261.539 188.309C258.008 189.713 255.233 191.252 253.343 192.396C252.397 192.969 251.669 193.443 251.171 193.764C250.675 194.088 250.406 194.255 250.392 194.236C250.379 194.218 250.621 194.013 251.093 193.653C251.568 193.295 252.275 192.786 253.206 192.177C255.065 190.963 257.828 189.355 261.373 187.896L261.543 187.826L261.643 187.983C263.804 191.352 266.358 195.335 269.092 199.597C269.217 199.793 269.341 199.988 269.456 200.169L269.083 200.099C274.855 195.926 280.055 192.167 283.888 189.396C285.744 188.084 287.267 187.007 288.39 186.213C288.888 185.874 289.296 185.595 289.627 185.37C289.916 185.184 290.071 185.092 290.081 185.106Z" fill="#263238"/>
<path d="M200.334 224.875C200.352 224.875 200.37 225.118 200.389 225.581C200.403 226.096 200.421 226.768 200.444 227.605C200.478 229.423 200.525 231.95 200.583 235.048C200.702 241.332 200.953 250.01 201.279 259.596C201.604 269.185 201.798 277.873 201.823 284.161C201.833 287.305 201.827 289.849 201.797 291.607C201.779 292.444 201.765 293.116 201.754 293.631C201.738 294.094 201.722 294.337 201.704 294.337C201.686 294.337 201.668 294.094 201.649 293.631C201.635 293.116 201.617 292.444 201.594 291.607C201.56 289.789 201.513 287.262 201.455 284.165C201.336 277.881 201.085 269.202 200.759 259.613C200.434 250.027 200.241 241.341 200.216 235.052C200.206 231.908 200.212 229.363 200.242 227.605C200.26 226.768 200.274 226.095 200.285 225.58C200.3 225.118 200.316 224.875 200.334 224.875Z" fill="#263238"/>
<path d="M248.185 315.204C248.176 315.205 248.159 315.107 248.134 314.916C248.109 314.696 248.077 314.416 248.038 314.067C247.961 313.282 247.854 312.188 247.718 310.797C247.44 307.957 247.12 303.839 246.802 298.746C246.474 293.653 246.208 287.582 246.035 280.836C245.889 274.09 245.852 266.67 246.011 258.884C246.19 251.096 246.55 243.683 246.989 236.948C247.455 230.215 247.984 224.16 248.533 219.087C249.073 214.013 249.571 209.913 249.972 207.088C250.169 205.704 250.323 204.616 250.434 203.835C250.489 203.488 250.533 203.21 250.567 202.991C250.6 202.801 250.621 202.705 250.63 202.706C250.639 202.707 250.635 202.806 250.62 202.998C250.599 203.219 250.572 203.499 250.538 203.849C250.45 204.632 250.328 205.725 250.173 207.113C249.834 209.945 249.392 214.049 248.899 219.124C248.398 224.199 247.907 230.251 247.467 236.979C247.055 243.709 246.71 251.115 246.531 258.895C246.372 266.673 246.395 274.085 246.514 280.825C246.661 287.565 246.888 293.633 247.168 298.724C247.439 303.816 247.703 307.935 247.919 310.78C248.014 312.174 248.088 313.271 248.142 314.058C248.16 314.409 248.175 314.69 248.187 314.912C248.195 315.104 248.194 315.203 248.185 315.204Z" fill="#263238"/>
<path d="M218.389 151.516C218.389 151.516 218.036 151.763 217.333 152.224C216.621 152.687 215.575 153.367 214.207 154.256C212.834 155.15 211.246 156.416 209.307 157.821C208.352 158.543 207.393 159.409 206.329 160.286C205.801 160.73 205.257 161.188 204.695 161.66C204.142 162.142 203.611 162.682 203.044 163.214C198.499 167.445 193.336 173.125 188.58 180.577C187.997 181.515 187.404 182.468 186.801 183.438C186.174 184.394 185.688 185.453 185.111 186.481C184.566 187.526 183.959 188.561 183.44 189.66C182.935 190.766 182.423 191.889 181.903 193.027C181.65 193.599 181.366 194.163 181.133 194.753C180.907 195.346 180.68 195.944 180.451 196.545C180 197.75 179.516 198.962 179.074 200.207C178.334 202.744 177.4 205.299 176.842 208.024C175.456 213.407 174.692 219.208 174.383 225.258C174.034 231.313 174.395 237.65 175.435 244.095C177.54 256.963 182.617 270.363 191.247 282.274C199.765 294.221 211.804 304.613 226.262 311.443C240.688 318.315 257.57 321.285 274.429 319.538C291.313 317.789 307.128 311.143 319.796 301.428C322.99 299.025 325.922 296.353 328.74 293.627C329.418 292.919 330.094 292.213 330.769 291.508C331.452 290.811 332.111 290.095 332.735 289.351C333.371 288.618 334.005 287.886 334.638 287.156C335.236 286.397 335.832 285.64 336.426 284.886C341.18 278.84 344.93 272.246 347.893 265.536C350.851 258.812 352.809 251.87 354.015 245.024C354.635 241.6 354.976 238.184 355.203 234.817C355.31 233.133 355.308 231.457 355.365 229.798C355.333 228.139 355.243 226.493 355.186 224.861C355.154 224.045 355.122 223.233 355.09 222.424C355.041 221.617 354.909 220.819 354.824 220.022C354.631 218.429 354.441 216.85 354.252 215.286C354.004 213.731 353.645 212.209 353.352 210.691C353.04 209.177 352.779 207.665 352.309 206.221C351.89 204.764 351.475 203.322 351.064 201.894C350.88 201.173 350.627 200.48 350.358 199.795C350.1 199.107 349.843 198.423 349.587 197.742C349.054 196.39 348.619 195.014 348.022 193.724C347.42 192.436 346.824 191.163 346.236 189.905C341.408 179.884 335.208 171.785 328.983 165.534C322.736 159.269 316.451 154.876 311.156 151.642C309.808 150.868 308.535 150.136 307.339 149.449C306.751 149.087 306.144 148.808 305.562 148.534C304.98 148.257 304.419 147.99 303.878 147.732C302.797 147.217 301.8 146.741 300.887 146.306C299.984 145.848 299.1 145.588 298.345 145.272C296.824 144.682 295.661 144.232 294.869 143.925C294.087 143.619 293.69 143.449 293.69 143.449C293.69 143.449 294.098 143.585 294.887 143.875C295.684 144.171 296.854 144.606 298.384 145.175C299.143 145.483 300.032 145.736 300.939 146.187C301.857 146.616 302.859 147.085 303.945 147.593C304.488 147.847 305.052 148.112 305.637 148.385C306.223 148.656 306.832 148.932 307.424 149.291C308.626 149.973 309.906 150.699 311.261 151.468C316.584 154.683 322.903 159.063 329.19 165.329C335.455 171.58 341.699 179.692 346.568 189.744C347.162 191.006 347.762 192.283 348.369 193.575C348.97 194.87 349.411 196.25 349.948 197.607C350.206 198.29 350.465 198.977 350.726 199.667C350.997 200.354 351.252 201.051 351.439 201.774C351.854 203.207 352.274 204.655 352.698 206.118C353.172 207.568 353.437 209.086 353.753 210.607C354.05 212.131 354.413 213.66 354.664 215.221C354.856 216.792 355.051 218.378 355.247 219.978C355.334 220.779 355.468 221.58 355.518 222.391C355.551 223.204 355.585 224.02 355.619 224.839C355.679 226.478 355.771 228.132 355.805 229.799C355.75 231.466 355.754 233.15 355.649 234.842C355.426 238.225 355.087 241.659 354.468 245.101C353.264 251.984 351.302 258.964 348.335 265.727C345.362 272.476 341.596 279.108 336.821 285.191C336.224 285.95 335.625 286.712 335.024 287.475C334.388 288.209 333.751 288.945 333.112 289.683C332.485 290.432 331.823 291.152 331.136 291.853C330.458 292.562 329.778 293.273 329.097 293.985C326.266 296.728 323.318 299.416 320.107 301.834C307.373 311.609 291.466 318.298 274.485 320.057C257.531 321.815 240.551 318.823 226.046 311.906C211.509 305.031 199.411 294.573 190.859 282.555C182.194 270.573 177.107 257.098 175.01 244.165C173.974 237.687 173.621 231.321 173.982 225.24C174.302 219.164 175.082 213.34 176.484 207.938C177.051 205.203 177.994 202.639 178.743 200.095C179.189 198.846 179.678 197.63 180.134 196.422C180.365 195.819 180.595 195.22 180.823 194.625C181.058 194.033 181.345 193.468 181.6 192.894C182.125 191.753 182.642 190.627 183.151 189.519C183.674 188.417 184.286 187.38 184.836 186.333C185.418 185.303 185.909 184.242 186.54 183.285C187.148 182.314 187.746 181.359 188.334 180.42C193.129 172.96 198.329 167.285 202.905 163.067C203.476 162.537 204.011 161.999 204.567 161.519C205.132 161.049 205.681 160.593 206.212 160.151C207.283 159.279 208.249 158.417 209.21 157.7C211.162 156.305 212.762 155.051 214.146 154.17C215.528 153.299 216.583 152.633 217.302 152.179C218.017 151.733 218.389 151.516 218.389 151.516Z" fill="#263238"/>
</svg>
