<svg width="570" height="403" viewBox="0 0 570 403" fill="none" xmlns="http://www.w3.org/2000/svg">
<path d="M117.353 332.475C105.545 327.664 88.7666 350.107 88.7666 350.107C88.7666 350.107 132.794 275.685 112.951 265.605C102.283 260.186 88.4931 282.362 88.4931 282.362C88.4931 282.362 99.6223 211.882 55.1431 215.056C10.6625 218.233 33.7458 286.271 33.7458 286.271C33.7458 286.271 15.8541 265.816 6.71265 273.19C-9.50666 286.272 45.0958 353.225 45.0958 353.225C45.0958 353.225 24.672 333.44 13.8352 339.867C2.99838 346.295 71.204 401.172 71.204 401.172C71.204 401.172 129.161 337.286 117.353 332.475Z" fill="#787878"/>
<path d="M292.078 329.346C302.476 339.616 410.048 343.247 401.734 308.189C394.73 278.664 323.576 303.198 299.318 319.302C305.494 310.43 311.275 301.4 316.746 292.477C321.983 283.932 326.894 275.244 331.49 266.432C349.724 272.214 447.586 253.518 431.242 222.252C418.166 197.232 364.025 227.73 340.06 248.951C346.717 234.682 352.582 220.122 357.7 205.34C371.77 211.996 474.599 186.537 455.315 155.449C439.201 129.47 380.541 170.72 361.83 192.867C366.854 176.943 371.051 160.793 374.426 144.499C391.041 148.41 486.81 111.485 463.501 83.2849C444.22 59.9577 393.799 105.271 377.231 129.885C378.851 120.745 380.208 111.566 381.343 102.366C395.406 93.2432 426.481 3.15536 387.804 1.01959C351.261 -1.0004 363.242 82.9967 375.244 100.091C373.992 110.491 372.4 120.851 370.512 131.155C362.438 105.234 321.347 44.1464 296.296 64.9732C268.086 88.4297 350.697 142.577 368.35 142.388C365.027 158.445 360.867 174.337 355.928 190.024C350.541 162.323 319.375 100.158 292.171 117.438C261.253 137.079 333.008 199.149 351.764 202.631C345.55 220.581 338.238 238.214 329.771 255.43C329.635 231.188 301.744 157.446 271.413 173.974C237.987 192.192 310.444 262.569 325.998 263C321.302 272.116 316.299 281.118 310.941 289.972C306.139 297.906 301.046 305.932 295.616 313.84C299.309 285.605 289.741 218.765 258.331 227.866C222.424 238.274 270.62 316.825 287.425 325.292C277.099 339.147 265.61 352.321 252.644 363.637C249.66 366.241 254.585 370.003 257.546 367.417C270.448 356.151 281.813 343.089 292.078 329.346Z" fill="#787878"/>
<path d="M551.175 322.664C537.472 315.615 514.343 341.068 514.343 341.068C514.343 341.068 576.976 255.463 554.198 241.201C541.952 233.534 522.475 258.972 522.475 258.972C522.475 258.972 544.765 174.741 490.483 173.99C436.202 173.24 455.664 258.048 455.664 258.048C455.664 258.048 436.546 231.42 424.551 239.408C403.269 253.579 461.048 340.331 461.048 340.331C461.048 340.331 438.779 314.252 424.848 320.918C410.917 327.584 486.685 401.114 486.685 401.114C486.685 401.114 564.877 329.714 551.175 322.664Z" fill="#787878"/>
<path d="M137.936 287.256C124.922 274.229 114.82 257.972 106.447 241.752C105.569 241.775 104.312 241.779 102.769 241.701C99.607 241.567 95.2198 241.14 90.2462 240.189C85.2807 239.234 79.6992 237.772 74.0323 235.752C68.3424 233.732 62.574 231.143 57.0317 228.207C51.507 225.224 46.2192 221.893 41.5327 218.342C39.1712 216.57 36.9789 214.765 34.941 212.955C32.9139 211.156 31.0913 209.317 29.4055 207.581C27.7467 205.832 26.2911 204.147 25.0155 202.569C23.7697 200.996 22.723 199.571 21.897 198.34C20.2234 195.877 19.4177 194.239 19.4177 194.239C19.4177 194.239 21.3906 194.08 24.5497 194.223C26.1475 194.283 28.0392 194.431 30.1543 194.665C32.2653 194.904 34.5998 195.267 37.0899 195.723C39.5639 196.222 42.2233 196.776 44.941 197.537C47.6708 198.284 50.4738 199.15 53.3147 200.168C58.9978 202.176 64.7622 204.78 70.2963 207.735C75.8034 210.731 81.1033 214.068 85.7804 217.62C90.4872 221.147 94.5793 224.881 97.9076 228.382C99.5366 230.097 100.972 231.761 102.214 233.31C101.618 232.056 101.015 230.812 100.425 229.562C94.716 217.527 89.8575 205.226 85.6612 192.757C84.9991 192.745 84.2367 192.72 83.3579 192.682C80.1826 192.55 75.7953 192.118 70.8298 191.16C65.859 190.21 60.2882 188.754 54.6092 186.727C48.9382 184.723 43.1536 182.121 37.6099 179.183C32.0839 176.207 26.788 172.881 22.1191 169.325C19.7643 167.559 17.5612 165.75 15.5274 163.934C13.4949 162.142 11.6628 160.294 9.98914 158.56C8.3209 156.808 6.87202 155.126 5.60053 153.56C4.36289 151.989 3.3067 150.554 2.47528 149.319C0.805689 146.86 0 145.222 0 145.222C0 145.222 1.97698 145.062 5.1266 145.199C6.73661 145.269 8.62963 145.409 10.7312 145.641C12.8476 145.884 15.1794 146.238 17.6804 146.705C20.1489 147.194 22.8016 147.762 25.526 148.51C28.2518 149.253 31.0588 150.137 33.897 151.149C39.576 153.164 45.3472 155.764 50.8732 158.72C56.3885 161.712 61.6857 165.044 66.3641 168.591C71.056 172.135 75.1711 175.863 78.4899 179.364C80.23 181.196 81.7438 182.965 83.0587 184.587C79.2699 172.324 76.1501 159.905 73.6734 147.364C73.0059 147.161 72.2462 146.93 71.3837 146.641C68.4006 145.62 64.3614 144.006 59.9457 141.733C55.5232 139.46 50.6918 136.536 45.9633 133.037C41.2199 129.561 36.5754 125.503 32.2734 121.166C27.9891 116.81 24.0554 112.181 20.7758 107.503C19.1211 105.175 17.6208 102.849 16.2951 100.561C14.9478 98.2869 13.8158 96.0292 12.7975 93.9156C11.8145 91.7823 10.9641 89.7746 10.2884 87.9357C9.62354 86.0931 9.07648 84.434 8.71629 83.036C7.93633 80.2413 7.72104 78.4479 7.72104 78.4479C7.72104 78.4479 9.64655 78.8396 12.6228 79.841C14.1178 80.346 15.8578 81.0012 17.809 81.8154C19.7454 82.6221 21.8415 83.5976 24.0703 84.7222C26.2586 85.8849 28.6133 87.1536 30.9464 88.6156C33.2931 90.0739 35.679 91.6813 38.0581 93.4254C42.7934 96.9099 47.4298 100.976 51.7141 105.316C55.9849 109.683 59.905 114.313 63.1901 118.997C66.4331 123.564 69.0397 128.151 71.0316 132.321C69.3728 121.724 68.1338 111.062 67.2889 100.365C66.0147 97.9384 64.5861 94.8382 63.293 91.2009C61.7452 86.789 60.3844 81.6651 59.5151 76.1779C58.6078 70.6808 58.2327 64.8462 58.3058 59.0055C58.402 53.1697 58.9626 47.3376 60.0391 41.8676C60.5631 39.1394 61.2036 36.5073 61.9186 34.0069C62.6281 31.5152 63.4934 29.1491 64.3099 26.9616C65.1643 24.7839 66.0567 22.7886 66.9287 21.0211C67.8089 19.2511 68.643 17.7164 69.427 16.4502C70.9301 13.9105 72.1203 12.4694 72.1203 12.4694C72.1203 12.4694 73.2388 13.9437 74.6768 16.5167C75.408 17.8113 76.2015 19.3657 77.0167 21.1615C77.8373 22.9462 78.666 24.9736 79.4419 27.171C80.2002 29.3769 80.9801 31.7492 81.6057 34.2729C82.2394 36.7893 82.7946 39.4412 83.2306 42.1792C84.1284 47.6665 84.4926 53.5146 84.4195 59.359C84.28 65.1849 83.71 71.0244 82.6457 76.487C81.5908 81.957 80.0593 87.039 78.364 91.3968C76.67 95.7533 74.7946 99.3794 73.274 101.919C72.7594 102.781 72.2882 103.499 71.8833 104.101C73.3769 121.247 75.9118 138.338 79.6206 155.188C80.1947 152.53 81.0966 149.196 82.4561 145.512C84.0851 141.13 86.3396 136.269 89.2103 131.379C92.0783 126.481 95.5935 121.58 99.4472 116.918C103.35 112.278 107.602 107.889 112.035 104.082C114.256 102.159 116.48 100.377 118.696 98.7599C120.899 97.1353 123.121 95.6979 125.209 94.3849C127.331 93.1027 129.337 91.9781 131.197 91.0236C133.064 90.0801 134.746 89.2955 136.201 88.6907C139.067 87.4689 140.945 86.943 140.945 86.943C140.945 86.943 140.897 88.7375 140.368 91.5778C140.117 93.0177 139.734 94.7014 139.232 96.5884C138.708 98.468 138.055 100.532 137.259 102.726C136.413 104.901 135.495 107.24 134.352 109.611C133.22 111.971 131.937 114.41 130.501 116.852C127.631 121.757 124.113 126.662 120.233 131.309C116.314 135.944 112.046 140.319 107.621 144.133C103.217 147.959 98.6524 151.227 94.4371 153.818C90.2326 156.405 86.3518 158.311 83.4771 159.521C82.4642 159.955 81.5664 160.306 80.8393 160.558C84.8176 177.395 89.9618 193.968 96.4967 210.103C96.582 209.565 96.6781 208.964 96.7986 208.291C97.3294 205.444 98.3233 201.542 99.9442 197.162C101.565 192.777 103.818 187.924 106.686 183.032C109.556 178.138 113.059 173.227 116.934 168.56C120.832 163.921 125.091 159.532 129.528 155.716C131.722 153.813 133.96 152.024 136.176 150.414C138.376 148.793 140.603 147.354 142.69 146.038C144.809 144.748 146.819 143.615 148.678 142.675C150.534 141.733 152.216 140.942 153.677 140.335C156.54 139.128 158.433 138.593 158.433 138.593C158.433 138.593 158.38 140.384 157.851 143.233C157.595 144.66 157.21 146.347 156.706 148.236C156.186 150.118 155.539 152.186 154.725 154.38C153.906 156.561 152.979 158.903 151.825 161.25C150.701 163.627 149.416 166.065 147.971 168.51C145.1 173.396 141.591 178.301 137.704 182.953C133.799 187.589 129.526 191.974 125.099 195.792C120.683 199.613 116.128 202.881 111.921 205.465C107.709 208.05 103.839 209.949 100.954 211.172C99.5312 211.778 98.3436 212.22 97.5217 212.51C100.065 218.67 102.799 224.769 105.772 230.78C109.408 238.158 113.314 245.691 117.634 253.059C117.721 252.375 117.84 251.552 118.028 250.6C118.548 247.742 119.531 243.842 121.174 239.473C122.777 235.083 125.034 230.216 127.913 225.343C130.781 220.43 134.28 215.525 138.165 210.868C142.055 206.223 146.303 201.841 150.728 198.025C152.939 196.101 155.186 194.325 157.405 192.71C159.599 191.087 161.834 189.647 163.917 188.334C166.021 187.053 168.044 185.919 169.905 184.973C171.769 184.032 173.456 183.25 174.892 182.644C177.771 181.424 179.653 180.895 179.653 180.895C179.653 180.895 179.596 182.686 179.083 185.538C178.816 186.961 178.438 188.657 177.929 190.534C177.419 192.422 176.754 194.479 175.962 196.684C175.129 198.854 174.199 201.21 173.043 203.552C171.918 205.927 170.643 208.363 169.198 210.805C166.322 215.705 162.809 220.601 158.932 225.259C155.011 229.884 150.763 234.273 146.319 238.095C141.909 241.919 137.355 245.172 133.152 247.766C128.93 250.354 125.064 252.246 122.17 253.468C120.721 254.096 119.516 254.539 118.679 254.826C125.088 265.543 132.433 275.845 141.241 284.659C143.113 286.552 139.815 289.14 137.936 287.256Z" fill="#787878"/>
<path d="M384.796 228.022C372.603 236.352 337.124 260.549 317.46 273.52C320.633 293.306 337.404 309.174 337.404 309.174C337.404 309.174 358.131 286.952 369.194 274.874C380.257 262.796 388.852 253.384 391.499 246.223C391.865 245.233 391.11 244.614 390.554 244.305L391.94 243.198C393.63 241.848 393.739 239.488 392.177 238.015C391.185 237.079 389.763 236.772 388.451 237.051L390.915 235.27C392.952 233.798 393.416 231.154 391.985 229.179C390.393 226.976 387.112 226.441 384.796 228.022Z" fill="#FFBF9D"/>
<path d="M328.652 267.126L354.673 231.718C356.177 229.673 359.195 229.084 361.489 230.389C363.887 231.754 364.566 234.654 362.987 236.789L347.366 257.923C347.366 257.923 336.792 275.234 328.652 267.126Z" fill="#FFBF9D"/>
<path d="M360.932 264.773C360.884 266.418 360.605 268.078 360.01 269.709L357.9 269.071C360.451 262.08 356.329 253.458 353.131 249.664L354.894 248.432C356.928 250.843 361.135 257.638 360.932 264.773Z" fill="#263238"/>
<path d="M388.341 237.006L368.488 252.123L369.202 252.898L389.055 237.782L388.341 237.006Z" fill="#263238"/>
<path d="M390.425 244.364L373.354 259.648L374.134 260.368L391.205 245.084L390.425 244.364Z" fill="#263238"/>
<path d="M224.928 222.569C241.362 232.184 257.2 253.258 279.087 295.944L318.709 270.773L349.657 302.688L298.263 356.029C290.232 364.364 276.222 365.024 267.286 357.49L251.843 344.467C251.84 344.468 230.477 233.169 224.928 222.569Z" fill="#455A64"/>
<path d="M209.311 170.591C212.595 177.228 226.58 193.489 238.133 201.342L237.647 203.776C237.647 203.776 211.379 187.184 206.758 172.692C202.136 158.202 209.311 170.591 209.311 170.591Z" fill="#455A64"/>
<path d="M211.059 190.125C220.725 190.125 228.562 179.632 228.562 166.688C228.562 153.744 220.725 143.251 211.059 143.251C201.392 143.251 193.556 153.744 193.556 166.688C193.556 179.632 201.392 190.125 211.059 190.125Z" fill="#455A64"/>
<path d="M236.734 241.04L151.128 262.435L152.116 197.29L152.143 195.775L152.496 171.646L152.55 170.808C152.59 170.045 152.685 169.293 152.834 168.567C154.635 158.713 164.303 151.347 175.637 151.766C187.797 152.271 197.275 161.583 196.842 172.656L196.666 177.644L195.65 206.725L195.285 216.529L197.939 218.093L236.734 241.04Z" fill="#FFBF9D"/>
<path d="M197.94 218.093L197.845 218.672C175.855 217.379 161.285 205.21 152.145 195.775L152.497 171.646L152.551 170.808C152.591 170.045 152.686 169.293 152.835 168.567L156.911 164.699L196.667 177.644L195.652 206.725L195.286 216.529L197.94 218.093Z" fill="#FFBF9D"/>
<path d="M196.958 215.932C189.007 233.037 172.803 229.518 157.346 224.202C157.943 230.89 161.014 335.576 174.774 401.079H258.414C255.071 310.153 232.54 252.029 196.958 215.932Z" fill="white"/>
<path d="M166.921 227.047L213.326 280.737L195.227 218.873L201.482 221.748L218.563 283.503L211.966 285.506L165.562 235.701L166.921 227.047Z" fill="#455A64"/>
<path d="M207.971 326.163C207.402 318.614 190.53 312.036 189.941 304.188C186.163 253.449 172.819 220.285 151.936 209.452C127.494 224.398 123.29 242.821 122.158 254.555C121.465 261.932 107.752 342.469 97.6963 401.08H222.331C221.681 383.779 210.336 355.979 207.971 326.163Z" fill="#455A64"/>
<path d="M195.463 212.381L195.228 218.873C211.596 235.072 224.376 263.682 231.554 300.444C239.708 342.079 234.699 400.295 234.699 400.295C234.699 400.295 262.086 399.995 279.574 399.995C276.68 366.804 268.208 325.866 262.33 301.409C256.698 277.98 245.169 209.879 195.463 212.381Z" fill="#455A64"/>
<path d="M140.453 163.838C145.608 177.362 151.065 180.343 156.507 179.854C165.9 205.59 184.137 218.109 203.226 217.117C218.706 216.346 222.457 196.787 222.424 178.42C222.39 174.176 222.19 169.961 221.887 166.084C221.365 159.761 220.116 150.976 217.843 140.958C237.031 110.478 203.871 96.6243 175.359 116.049C174.323 114.994 173.153 114.123 171.854 113.545C166.148 110.817 158.376 113.621 149.739 127.868C135.894 133.004 134.999 149.526 140.453 163.838Z" fill="#263238"/>
<path d="M222.428 178.42L222.373 178.445C207.898 186.857 193.531 179.861 190.241 180.206C187.005 180.514 178.975 183.224 176.497 182.485C174.005 181.758 170.755 179.098 166.802 170.439C164.608 175.427 152.34 179.147 148.291 164.872C144.229 150.645 157.336 149.389 165.786 164.034C164.96 160.019 164.906 154.254 164.716 146.704C196.578 113.928 213.084 132.207 217.851 140.964C218.027 141.74 218.189 142.504 218.365 143.255C218.717 144.943 219.056 146.581 219.354 148.182C220.694 155.19 221.493 161.337 221.886 166.079C222.197 169.959 222.387 174.171 222.428 178.42Z" fill="#FFBF9D"/>
<path d="M219.351 148.182C217.482 147.037 215.194 146.027 211.768 146.174C208.64 146.322 208.085 143.058 210.454 142.282C213.501 141.297 216.196 141.962 218.362 143.255C218.714 144.943 219.053 146.581 219.351 148.182Z" fill="#FFBF9D"/>
<path d="M163.508 165.962C162.608 164.927 161.803 163.876 160.872 162.926C159.968 161.96 159.005 161.051 157.937 160.279C156.887 159.49 155.731 158.815 154.483 158.405C153.86 158.202 153.202 158.075 152.558 158.133C151.914 158.166 151.273 158.429 150.836 158.969C151.016 158.317 151.689 157.795 152.435 157.601C153.188 157.393 153.991 157.416 154.729 157.571C156.229 157.863 157.551 158.581 158.703 159.421C159.849 160.28 160.837 161.289 161.625 162.407C162.453 163.502 163.057 164.718 163.508 165.962Z" fill="#FFBF9D"/>
<path d="M162.412 164.248C161.76 163.784 161.033 163.461 160.276 163.248C159.52 163.04 158.733 162.909 157.957 162.962C157.183 162.972 156.422 163.173 155.794 163.564C155.157 163.95 154.701 164.567 154.387 165.266C154.454 164.516 154.832 163.753 155.508 163.227C156.178 162.695 157.073 162.464 157.93 162.411C158.797 162.4 159.658 162.54 160.438 162.852C161.214 163.163 161.938 163.62 162.412 164.248Z" fill="#FFBF9D"/>
<path d="M204.569 176.937C212.324 177.235 216.098 174.425 215.627 172.521C215.156 170.616 208.896 166.522 204.573 158.893" stroke="#263238" stroke-width="0.7" stroke-miterlimit="10" stroke-linecap="round"/>
<path d="M190.362 161.175C190.277 163.185 191.666 164.865 193.464 164.928C195.263 164.991 196.789 163.413 196.874 161.403C196.959 159.393 195.57 157.713 193.772 157.65C191.973 157.587 190.447 159.166 190.362 161.175Z" fill="#455A64"/>
<path d="M212.532 160.093C212.49 162.103 213.916 163.758 215.716 163.789C217.515 163.82 219.007 162.215 219.048 160.203C219.09 158.193 217.664 156.538 215.865 156.507C214.066 156.476 212.574 158.081 212.532 160.093Z" fill="#455A64"/>
<path d="M193.706 143.276C187.668 141.131 181.851 146.459 179.323 149.597C178.077 151.143 179.112 152.092 180.869 150.877C183.031 149.384 188.058 147.102 192.497 147.197C195.636 147.263 196.05 144.109 193.706 143.276Z" fill="#FFBF9D"/>
<path d="M192.685 141.919C186.517 140.104 181.06 145.738 178.742 149.008C177.6 150.619 178.695 151.51 180.37 150.202C182.429 148.595 187.298 146.042 191.735 145.897C194.873 145.794 195.08 142.623 192.685 141.919Z" fill="#263238"/>
<path d="M210.454 141.054C216.015 139.242 220.416 142.962 222.578 146.009C223.721 147.619 222.734 149.132 220.943 147.959C218.74 146.518 216.209 144.743 211.775 144.944C208.639 145.085 208.084 141.826 210.454 141.054Z" fill="#263238"/>
<path d="M219.068 186.045C218.987 186.537 218.892 187.005 218.77 187.461C218.324 189.456 217.714 191.107 216.983 192.412C213.557 198.571 207.491 197.327 202.819 189.801C202.413 189.148 202.02 188.446 201.641 187.707C201.587 187.609 201.546 187.51 201.492 187.412C209.657 184.332 216.347 184.517 219.068 186.045Z" fill="#A43B3B"/>
<path d="M321.518 389.087L356.343 386.425C358.222 386.281 359.873 385.23 360.665 383.672C362.187 380.675 359.984 377.212 356.368 376.92L320.767 374.042L321.518 389.087Z" fill="#263238"/>
<path d="M388.081 376.124C386.119 380.31 381.801 383.128 376.943 383.587C376.094 383.667 375.221 383.667 374.339 383.6L352.191 381.799L321.515 389.092L297.168 393.016L287.724 393.263L294.988 362.151L300.179 363.414L311.825 366.38C316.904 367.674 322.238 367.915 327.434 367.086L342.853 364.625C348.591 363.7 354.494 364.225 359.925 366.151L388.081 376.124Z" fill="#FFBF9D"/>
<path d="M359.351 372.44L358.911 373.743L383.623 380.649L384.063 379.347L359.351 372.44Z" fill="#263238"/>
<path d="M169.071 231.592C152.164 259.274 173.653 379.354 173.653 379.354L297.958 398.608L311.481 362.307L207.359 318.285C207.362 318.284 198.166 274.596 169.071 231.592Z" fill="#455A64"/>
<path d="M218.935 386.166L187.444 380.63C168.725 375.459 154.517 361.522 150.257 344.155L139.455 300.117" stroke="#454975" stroke-width="0.8978" stroke-miterlimit="10"/>
<path d="M164.595 146.913C164.355 137.094 168.058 122.26 182.852 111.731L174.984 114.641C168.4 120.31 157.446 130.96 158.098 146.73L164.595 146.913Z" fill="#455A64"/>
<path d="M75.8172 403H537.694C539.09 403 540.234 401.96 540.234 400.691C540.234 399.419 539.091 398.381 537.694 398.381H75.8172C74.4212 398.381 73.2783 399.421 73.2783 400.691C73.277 401.96 74.4198 403 75.8172 403Z" fill="#787878"/>
<path d="M399.959 90.3267H258.307C241.356 90.3267 227.487 77.7116 227.487 62.2932C227.487 46.8747 241.356 34.2596 258.307 34.2596H399.959C416.91 34.2596 430.779 46.8747 430.779 62.2932C430.779 77.7116 416.91 90.3267 399.959 90.3267Z" fill="#455A64"/>
<path d="M542.949 206.444H422.521C408.111 206.444 396.319 195.718 396.319 182.611C396.319 169.503 408.109 158.777 422.521 158.777H542.949C557.359 158.777 569.15 169.503 569.15 182.611C569.15 195.718 557.36 206.444 542.949 206.444Z" fill="#455A64"/>
<path d="M523.887 384.661H395.168C390.104 384.661 386.41 380.303 387.698 375.848L412.07 291.537C413.582 286.307 418.779 282.661 424.725 282.661H552.826C559.641 282.661 564.612 288.527 562.879 294.521L540.111 373.281C538.174 379.987 531.509 384.661 523.887 384.661Z" fill="#455A64"/>
<path d="M569.653 294.52L546.877 373.275C544.941 379.988 538.279 384.656 530.655 384.656H401.935C396.871 384.656 393.188 380.308 394.474 375.85L418.848 291.54C420.351 286.305 425.55 282.659 431.495 282.659H559.592C566.417 282.659 571.386 288.522 569.653 294.52Z" fill="#455A64"/>
<path d="M487.529 384.656H435.653L465.633 329.624L487.529 384.656Z" fill="#455A64"/>
<path d="M541.124 168.846H450.045V173.873H541.124V168.846Z" fill="white"/>
<path d="M444.951 168.846H428.217V173.873H444.951V168.846Z" fill="white"/>
<path d="M521.506 180.473H478.426V185.5H521.506V180.473Z" fill="white"/>
<path d="M541.123 180.473H525.581V185.5H541.123V180.473Z" fill="white"/>
<path d="M474.496 180.473H428.217V185.5H474.496V180.473Z" fill="white"/>
<path d="M498.19 192.102H460.671V197.129H498.19V192.102Z" fill="white"/>
<path d="M456.448 192.102H428.217V197.129H456.448V192.102Z" fill="white"/>
<path d="M368.215 48.0298H277.136V53.0564H368.215V48.0298Z" fill="white"/>
<path d="M272.043 48.0298H255.31V53.0564H272.043V48.0298Z" fill="white"/>
<path d="M348.597 59.6572H305.517V64.6838H348.597V59.6572Z" fill="white"/>
<path d="M368.216 59.6572H352.674V64.6838H368.216V59.6572Z" fill="white"/>
<path d="M301.588 59.6572H255.31V64.6838H301.588V59.6572Z" fill="white"/>
<path d="M325.281 71.2855H287.762V76.3121H325.281V71.2855Z" fill="white"/>
<path d="M283.541 71.2855H255.31V76.3121H283.541V71.2855Z" fill="white"/>
<path d="M515.736 398.389H320.171V389.092L390.892 385.232H430.592V393.321H513.677L515.736 398.389Z" fill="#455A64"/>
<path d="M465.635 329.62H509.357L515.734 398.389H448.937L465.635 329.62Z" fill="#303D44"/>
<path d="M430.592 385.232V393.321H391.146L390.893 385.232H430.592Z" fill="#36444A"/>
<path d="M538.045 362.274H528.771L529.54 359.599H538.815L538.045 362.274Z" fill="#303352"/>
<path d="M537.838 360.977H529.723L530.094 359.691H538.209L537.838 360.977Z" fill="white"/>
<path d="M536.371 368.085H527.097L527.867 365.41H537.141L536.371 368.085Z" fill="#303352"/>
<path d="M536.165 366.788H528.05L528.419 365.503H536.535L536.165 366.788Z" fill="white"/>
<path d="M534.698 373.895H525.424L526.193 371.22H535.468L534.698 373.895Z" fill="#303352"/>
<path d="M534.491 372.598H526.376L526.747 371.312H534.862L534.491 372.598Z" fill="white"/>
<path d="M156.37 190.125C166.037 190.125 173.873 179.632 173.873 166.688C173.873 153.744 166.037 143.251 156.37 143.251C146.704 143.251 138.867 153.744 138.867 166.688C138.867 179.632 146.704 190.125 156.37 190.125Z" fill="#455A64"/>
<path d="M153.983 184.931C160.851 184.931 166.419 176.569 166.419 166.255C166.419 155.94 160.851 147.578 153.983 147.578C147.115 147.578 141.547 155.94 141.547 166.255C141.547 176.569 147.115 184.931 153.983 184.931Z" fill="#787878"/>
<path d="M161.208 146.577H152.238C151.728 146.577 151.311 146.197 151.311 145.733C151.311 145.269 151.729 144.89 152.238 144.89H161.208C161.718 144.89 162.135 145.269 162.135 145.733C162.135 146.197 161.718 146.577 161.208 146.577Z" fill="#303352"/>
<path d="M245.096 201.408C245.096 205.162 241.75 208.207 237.621 208.207C233.492 208.207 230.146 205.163 230.146 201.408C230.146 197.652 233.492 194.609 237.621 194.609C241.75 194.609 245.096 197.653 245.096 201.408Z" fill="#455A64"/>
<path d="M240.304 198.514C240.304 200.292 238.72 201.733 236.766 201.733C234.812 201.733 233.228 200.292 233.228 198.514C233.228 196.737 234.812 195.296 236.766 195.296C238.72 195.297 240.304 196.738 240.304 198.514Z" fill="#455A64"/>
<path d="M160.97 145.764C160.877 134.117 170.132 117.754 182.852 111.731L174.262 114.56C156.576 122.734 152.672 137.552 152.387 145.725L160.97 145.764Z" fill="#455A64"/>
<path d="M219.066 186.045C218.985 186.537 218.89 187.005 218.768 187.461C216.615 187.831 214.327 188.065 211.957 188.175C208.301 188.348 204.794 188.163 201.639 187.707C201.585 187.609 201.544 187.51 201.49 187.412C209.655 184.332 216.345 184.517 219.066 186.045Z" fill="white"/>
<path d="M216.981 192.412C213.555 198.571 207.489 197.327 202.817 189.801C203.711 189.703 204.632 189.653 205.58 189.653C210.021 189.653 214.056 190.713 216.981 192.412Z" fill="#BB4344"/>
<path d="M225.237 287.097L208.733 290.294L214.547 315.126L231.051 311.929L225.237 287.097Z" fill="#263238"/>
<path d="M214.808 283.344C215.856 283.024 216.962 283.663 217.088 284.662L217.643 289.047L216.078 289.312L213.838 285.604C213.317 284.74 213.782 283.658 214.808 283.344Z" fill="#455A64"/>
<path d="M506.104 81.2909H460.356C454.943 81.2909 450.553 85.2828 450.553 90.2084V119.932C450.553 124.856 454.941 128.849 460.356 128.849H506.104C511.518 128.849 515.908 124.857 515.908 119.932V90.2084C515.908 85.2828 511.518 81.2909 506.104 81.2909ZM503.915 87.2351L483.23 101.354L462.546 87.2351H503.915ZM506.104 122.904H460.356C458.551 122.904 457.089 121.574 457.089 119.932V90.9511L481.27 107.447C481.836 107.833 482.524 108.042 483.231 108.042C483.938 108.042 484.626 107.834 485.192 107.447L509.373 90.9511V119.932C509.372 121.572 507.909 122.904 506.104 122.904Z" fill="#455A64"/>
<path d="M509.44 95.7646C515.14 95.7646 519.761 91.5614 519.761 86.3765C519.761 81.1917 515.14 76.9885 509.44 76.9885C503.74 76.9885 499.119 81.1917 499.119 86.3765C499.119 91.5614 503.74 95.7646 509.44 95.7646Z" fill="white"/>
<path d="M162.243 47.4636C168.12 47.4636 172.885 51.798 172.885 57.1436C172.885 58.9258 174.473 60.3706 176.433 60.3706C178.392 60.3706 179.98 58.9258 179.98 57.1436C179.98 48.2334 172.039 41.0095 162.243 41.0095C160.284 41.0095 158.695 42.4543 158.695 44.2366C158.695 46.0188 160.284 47.4636 162.243 47.4636Z" fill="white"/>
<path d="M162.243 34.5562C175.957 34.5562 187.074 44.6684 187.074 57.1431C187.074 58.9254 188.663 60.3702 190.622 60.3702C192.581 60.3702 194.17 58.9254 194.17 57.1431C194.17 41.1039 179.876 28.1021 162.243 28.1021C160.284 28.1021 158.695 29.5468 158.695 31.3291C158.695 33.1114 160.284 34.5562 162.243 34.5562Z" fill="white"/>
<path d="M193.284 72.9867C192.888 71.9336 191.922 71.1404 190.731 70.8892L169.446 66.4686C168.272 66.2259 167.043 66.5425 166.182 67.3074C165.685 67.7274 165.65 67.7594 163.344 71.76C155.693 68.5526 149.562 62.9533 146.069 55.9806C150.574 53.9151 150.609 53.9151 151.071 53.431C151.911 52.6476 152.259 51.5305 151.993 50.4626L147.133 31.3281C146.857 30.2442 145.985 29.366 144.827 29.0052C143.998 28.7354 143.142 28.5408 142.273 28.4238C141.377 28.2341 140.461 28.1269 139.542 28.1011C130.529 28.1011 123.224 34.7461 123.224 42.9443C123.263 70.3743 147.699 92.6003 177.853 92.6361C186.866 92.6361 194.171 85.991 194.171 77.7928C194.173 76.9713 194.101 76.151 193.959 75.3405C193.81 74.5411 193.584 73.7528 193.284 72.9867ZM177.853 86.1844C151.608 86.1672 130.338 66.8184 130.318 42.9455C130.337 38.3193 134.454 34.5737 139.54 34.5564H140.71L144.506 49.529L142.59 50.4318C139.539 51.884 137.126 53.0455 138.404 55.5631C142.616 66.4082 151.97 74.9525 163.875 78.8275C166.855 79.9249 168.025 77.8914 169.622 75.0843L170.651 73.3094L187.074 76.7299V77.7953C187.057 82.4203 182.939 86.1659 177.853 86.1844Z" fill="#455A64"/>
</svg>
